<?xml version="1.0" encoding="utf-8"?>
<!-- Generator: Adobe Illustrator 21.0.0, SVG Export Plug-In . SVG Version: 6.00 Build 0)  -->
<svg version="1.1" id="Layer_1" xmlns="http://www.w3.org/2000/svg" xmlns:xlink="http://www.w3.org/1999/xlink" x="0px" y="0px"
	 viewBox="0 0 22 22" style="enable-background:new 0 0 22 22;" xml:space="preserve">
<style type="text/css">
	.st0{fill:#333333;}
</style>
<g>
	<path class="st0" d="M3.3,5.6c1.4,0,2.5-1,2.7-2.3H21c0.2,0,0.4-0.2,0.4-0.4c0-0.2-0.2-0.4-0.4-0.4H6C5.8,1.2,4.7,0.2,3.3,0.2
		c-1.5,0-2.7,1.2-2.7,2.7C0.6,4.4,1.8,5.6,3.3,5.6L3.3,5.6z M3.3,1c1.1,0,1.9,0.9,1.9,1.9c0,1.1-0.9,1.9-1.9,1.9
		C2.2,4.8,1.4,4,1.4,2.9C1.4,1.8,2.2,1,3.3,1L3.3,1z M3.3,1"/>
	<path class="st0" d="M18.7,16.4c-1.4,0-2.5,1-2.7,2.3H1c-0.2,0-0.4,0.2-0.4,0.4c0,0.2,0.2,0.4,0.4,0.4H16c0.2,1.3,1.3,2.3,2.7,2.3
		c1.5,0,2.7-1.2,2.7-2.7C21.4,17.6,20.2,16.4,18.7,16.4L18.7,16.4z M18.7,21c-1.1,0-1.9-0.9-1.9-1.9c0-1.1,0.9-1.9,1.9-1.9
		c1.1,0,1.9,0.9,1.9,1.9C20.6,20.2,19.8,21,18.7,21L18.7,21z M18.7,21"/>
	<path class="st0" d="M21,10.6h-7.2c-0.2-1.4-1.3-2.5-2.8-2.5c-1.4,0-2.6,1.1-2.8,2.5H1c-0.2,0-0.4,0.2-0.4,0.4
		c0,0.2,0.2,0.4,0.4,0.4h7.4c0.2,1.3,1.4,2.3,2.7,2.3c1.4,0,2.5-1,2.7-2.3H21c0.2,0,0.4-0.2,0.4-0.4C21.4,10.8,21.2,10.6,21,10.6
		L21,10.6z M11.1,12.9c-1.1,0-2-0.9-2-2c0-1.1,0.9-2,2-2c1.1,0,2,0.9,2,2C13.1,12,12.2,12.9,11.1,12.9L11.1,12.9z M11.1,12.9"/>
</g>
</svg>
