<?xml version="1.0" standalone="no"?>
<!DOCTYPE svg PUBLIC "-//W3C//DTD SVG 1.1//EN" "http://www.w3.org/Graphics/SVG/1.1/DTD/svg11.dtd" >
<svg xmlns="http://www.w3.org/2000/svg" xmlns:xlink="http://www.w3.org/1999/xlink" version="1.1">
<metadata>
Created by FontForge 20161003 at Fri Sep  7 08:23:36 2018
 By www-data
Premiere Graphics
</metadata>
<defs>
<font id="JaimeBlues" horiz-adv-x="1014" >
  <font-face 
    font-family="Jaime Blues"
    font-weight="400"
    font-stretch="normal"
    units-per-em="2048"
    panose-1="2 0 5 0 0 0 0 0 0 0"
    ascent="1638"
    descent="-410"
    x-height="623"
    cap-height="1300"
    bbox="-507 -737 1279.56 1630"
    underline-thickness="150"
    underline-position="-292"
    unicode-range="U+001D-F002"
  />
<missing-glyph horiz-adv-x="1024" 
 />
    <glyph glyph-name=".notdef" horiz-adv-x="1024" 
 />
    <glyph glyph-name=".null" horiz-adv-x="0" 
 />
    <glyph glyph-name=".null" horiz-adv-x="0" 
 />
    <glyph glyph-name="nonmarkingreturn" horiz-adv-x="508" 
 />
    <glyph glyph-name="space" unicode=" " horiz-adv-x="508" 
 />
    <glyph glyph-name="space" unicode="&#xa0;" horiz-adv-x="508" 
 />
    <glyph glyph-name="exclam" unicode="!" horiz-adv-x="488" 
d="M316 1325q20 -6 56 -8l1 3l34 -16q0 3 4 3q6 -16 44 -55l-1 -19q-22 -29 -53 -196q-22 -29 -23 -80h3l-11 -19l6 -22q-5 0 -11 -9l3 -16q-4 0 -15 -37q3 -6 3 -9l-16 -72q3 -12 2 -25q-22 -62 -39 -209q-5 1 -7 -21q0 -3 3 -4q-25 -130 -54 -129q-1 -29 -73 -82
q-17 10 -24 10q0 -7 -18 -9l1 22q-21 1 -21 16l1 16q3 19 11 18q2 -37 9 -38q5 34 12 50q2 55 12 141h-3l4 6l2 59q11 42 22 147q32 204 68 330h-4q12 46 39 111q1 14 32 93v16h-3l-18 -2q-3 21 -6 28q28 3 28 8zM217 172q36 -1 45 -23q6 -3 17 -4v-9q-8 0 -18 -12l3 -22
l-1 -16q-1 -47 -76 -82l-15 -2q-33 4 -63 5q1 8 -27 13l-4 1l-18 -3q-3 10 -20 10l-7 -3l-4 7q1 8 8 18q-28 11 -27 39l18 -4q67 4 135 49q14 28 54 38z" />
    <glyph glyph-name="quotedbl" unicode="&#x22;" horiz-adv-x="380" 
d="M111 1366h7q66 -17 66 -58q-23 -88 -23 -116l3 -15l-3 -6q0 1 15 -18v-6q0 -13 4 -13q-4 8 -4 3q0 -7 -20 -31l-10 5q1 0 -14 -3q-60 17 -67 104v8q0 41 18 96q-2 4 -2 19h10v-10q-2 2 -16 3v25q14 0 36 13zM240 1348q38 -7 67 -52v-7q-21 -56 -49 -181q-6 0 -6 -10h-35
q-32 33 -32 75l3 5v0q0 92 22 136q-7 2 -7 13q0 16 37 21z" />
    <glyph glyph-name="numbersign" unicode="#" horiz-adv-x="1255" 
d="M878 1323l43 -35q2 0 17 5q32 0 43 -26q13 0 26 -52v-17q-13 -94 -47 -221v-4q1 -9 8 -9h100q130 -27 130 -52q4 0 4 -4v-35q-17 -14 -17 -30l-22 4q-10 0 -52 -17q-39 9 -56 9q0 -7 -13 -13h-78l-52 4q-21 -63 -39 -134q-17 -5 -17 -39v-8h4q75 0 165 -9q13 0 13 17h13
l13 -8h8q19 17 35 17q13 0 26 -22q31 0 43 -30v-4q-46 -57 -82 -57q-15 -18 -121 -30q0 -8 -22 -8h-43q-4 0 -35 -9h-69q0 -13 -60 -229q-12 -65 -22 -65q-9 4 -13 4q0 -14 -43 -108v-30q-35 0 -35 -30l-13 -13q0 8 -8 8l-26 -4q0 9 -9 9h-26q0 8 -4 8l4 9v17q-19 0 -26 9
q9 12 13 65h9v-31q1 -8 8 -8q6 0 18 52q0 4 -5 4q10 65 18 65l-5 21v5q0 19 52 225v4h-8q-22 -1 -22 -9l-9 5h-8q-63 -13 -156 -48q-52 -125 -73 -208q-22 0 -31 -38q-6 0 -17 -48q-8 -1 -48 -95q-10 0 -26 -43h-17l-8 4q0 -7 -13 -13h-5q-3 22 -13 22q0 -9 -8 -9
q-11 0 -35 69v17h-13v18h4q9 -5 13 -5l5 9q-5 15 -5 17q9 20 18 22l8 -4q-8 -14 -8 -26v-5h17q0 53 65 264q-9 4 -13 4l-9 -4q-88 22 -130 61q-21 0 -43 34l5 31q0 16 -13 43h-13q0 -5 -5 -13q-17 6 -17 13v8q6 0 17 9h9q10 -11 104 -22q45 22 173 57q30 31 30 69
q-30 -9 -35 -9h-26q-125 39 -125 78q-10 0 -17 -4q-18 6 -18 13q9 0 9 8q0 14 -13 31v8q9 10 9 26l8 -4h9q13 0 43 17q0 -13 9 -13h4q166 70 229 74q13 4 83 177q13 38 13 43q-2 12 -22 17q26 46 26 65q-7 0 -30 35v4q10 0 21 9h17q113 -28 113 -43q26 -38 26 -65
q0 -28 -4 -87h4q-24 -78 -30 -78v-17l30 -4q18 6 108 17q73 194 73 199q4 1 44 86l-9 5h-13q-3 -22 -13 -22v9q9 11 22 56q-9 0 -9 9zM843 1310h9v-4h-9v4zM895 1288v-13h13v13h-13zM614 774l-9 4h-4q-38 -12 -56 -39l-30 -86q1 -9 8 -9q43 9 87 9h64q13 27 13 34q0 5 -4 5
q35 66 35 112l-9 5zM1025 662l4 -9l-9 -4h-8v8q4 0 13 5zM510 130h9v-9h-9v9z" />
    <glyph glyph-name="dollar" unicode="$" horiz-adv-x="633" 
d="M272 1545l23 -5l28 4q87 -18 87 -78q-20 -89 -20 -107h17l-17 -34v11l31 -4l22 3q22 0 77 -73q-31 -63 -63 -63q-38 -3 -118 -89q0 1 -8 -27v-53q-26 0 -34 -31l-33 -24q-26 16 -29 16q-14 -5 -14 -39v-35q0 -59 139 -102q56 -19 145 -99q82 -74 82 -156h7l-23 -155
q-23 -95 -103 -194q-59 -71 -70 -71q-27 -30 -27 -31q-25 -177 -49 -177q-18 -63 -18 -99q-19 0 -26 -16q-17 -27 -72 -27q-25 17 -34 31h-20q25 77 57 77q-8 17 -8 -31h-14q0 49 18 181l-92 28q-5 7 -48 24q0 15 -41 58l-18 61l44 22q14 -36 11 -35l5 -20q-16 0 -16 39
l79 -46q16 3 46 3q4 -28 -10 -8q23 0 34 3v-4q0 11 -15 40l70 36v20h36q15 -12 11 -12q126 133 126 278q0 70 -23 94q-42 70 -94 70q-253 99 -253 275q19 129 52 129q0 12 104 105l12 42l-3 7q29 138 52 217q-28 15 -28 58zM201 204v-51q-31 -9 -57 -9v45z" />
    <glyph glyph-name="percent" unicode="%" horiz-adv-x="933" 
d="M740 1534q68 -9 78 -9v9h4q51 -22 78 -104v-4q-56 -83 -208 -424q-54 -104 -194 -419l-177 -376l-130 -277q-27 -58 -69 -78q-5 0 -5 -4l-21 4h-9q-10 0 -17 -4q-30 15 -30 48l-22 -5v5l4 17q-17 6 -17 13q0 4 4 4q0 4 -4 4q4 18 4 31h9q0 -22 4 -22q2 0 18 4q7 -4 17 -4
v22q13 16 13 30v4h-9v9q26 0 65 130q12 10 82 168q50 83 100 208q37 57 77 168q11 0 52 117q13 14 91 199q0 2 212 454v4q-22 0 -22 26q0 4 22 52zM312 1396q74 0 134 -87l17 -47q-10 -85 -104 -204q-52 -47 -90 -47q-100 36 -100 91h-4l4 8q0 13 -4 31q4 60 26 129l-9 5
q-11 -26 -17 -26h-4l30 95v4h-13v4q22 39 52 39h8q15 0 22 -4zM251 1145q5 0 5 -4q45 39 52 39q39 35 39 60v4q-8 7 -22 57l-9 4q-37 0 -47 -69q-18 -33 -18 -91zM645 544l21 -4l26 4q39 0 91 -56q24 -45 30 -78q0 -52 -47 -182q-59 -69 -82 -69q-94 0 -113 48
q-21 29 -21 73q0 94 86 221v13q-17 0 -17 13q10 0 26 17zM602 527h4v-5q0 -8 -9 -8h-4v4q1 9 9 9zM653 306v-21h5q56 59 56 116q-13 26 -13 31h-9q-39 -75 -39 -126z" />
    <glyph glyph-name="ampersand" unicode="&#x26;" horiz-adv-x="880" 
d="M657 1407q28 3 85 -44q48 -37 60 -89l5 -46q-5 -190 -210 -498q-27 -15 -67 -84q-12 -1 -37 -46l3 -30q118 -162 119 -179q89 -119 123 -136q21 -4 108 -76q13 -17 14 -25q-15 -48 -67 -53q-107 16 -189 82q-5 0 -26 28l3 8l-1 8q-31 33 -123 178q-35 53 -44 52
q-11 -1 -25 -52q-83 -120 -123 -209q-47 -57 -76 -181q16 -82 40 -80l19 2q91 35 168 142q34 31 49 78v3l-11 -8l-4 -1v4l22 41q1 -4 4 -4q-6 -13 -5 -23h4q2 0 15 6q16 -4 16 -10l1 -4l-3 -8q15 2 15 -2l-9 -51q0 -7 23 -5l1 -7q-19 -25 -45 -113q-31 -69 -77 -104
q4 -31 -123 -63q-92 -10 -204 77q-49 64 -55 117q2 50 25 121q-4 0 -4 3q8 2 18 41q15 1 27 41q12 1 13 21q6 0 29 49q51 64 59 90q8 1 69 100q71 85 68 111q-35 48 -46 148q-2 16 0 31q-5 13 -8 33q-15 137 99 394q102 171 225 216zM425 761l2 -11q1 -8 8 -7q57 71 83 120
q18 2 18 41q89 150 124 335v4q-6 11 -18 21q-34 -9 -79 -78q-57 -36 -131 -313q-2 -83 -7 -112z" />
    <glyph glyph-name="quotesingle" unicode="'" horiz-adv-x="179" 
d="M87 1377q75 -18 75 -63v-6q-24 -124 -33 -135q2 -12 2 -20q0 -15 -32 -35q-53 0 -68 82v6l2 3l-2 4q9 53 13 67q-2 4 -2 11q6 19 6 28q-11 15 -11 29v23h23q13 0 13 3q8 3 14 3z" />
    <glyph glyph-name="parenleft" unicode="(" horiz-adv-x="501" 
d="M294 1436h14q87 0 117 -72v-9q-80 -107 -198 -414q-26 -73 -36 -193q-16 0 -21 -192q5 -155 24 -155l-9 -19q17 -87 77 -245q18 -23 35 -88q5 0 21 -53q-9 -57 -28 -57h-22q-44 0 -127 166q-36 48 -89 205q8 13 8 10h9l-14 -7l-9 19q2 19 27 19v-7h-16v-3q-15 7 -33 73
q4 8 4 29l20 -10h-9v8q0 -2 13 -2v-18h-26l-5 27v11q0 11 2 15l-7 14l3 7q-3 6 -9 92l4 8q-4 19 -4 23l4 25q0 -7 -4 -7q0 85 17 135q-3 6 -3 14q4 7 4 19h27q0 -30 -4 -43h4q-11 -38 -14 -109q-5 -3 -9 -3v-6q0 63 9 151q-13 0 -13 26q32 139 86 274q0 32 149 269
q33 59 42 59v-6q0 -3 -11 -3v23zM77 884v10q-13 0 -13 -3v-7h13zM70 858v3q-13 0 -13 -3v-4q13 2 13 4zM44 496q0 2 -12 2v-7q12 2 12 5zM55 406v9h-13v-6q0 -3 13 -3z" />
    <glyph glyph-name="parenright" unicode=")" horiz-adv-x="459" 
d="M119 1415q92 -32 127 -86q38 -29 113 -216q64 -197 64 -266l-4 -7l8 -19l-4 -9q0 2 3 -11l-2 -12h2q0 -23 -3 -23q3 -45 10 -65q-4 -32 -6 -32l3 -32q0 -214 -95 -404q-25 -67 -77 -137q-29 -59 -111 -95q-2 0 -33 -14q-21 7 -21 3q6 2 6 -11q-34 15 -37 28v10
q136 270 136 285q83 164 83 408q-10 159 -21 189q0 8 3 14q-17 111 -55 233q0 23 -88 180q-11 9 -34 21v17q1 0 -10 0v27q23 0 23 2q-5 -2 -9 -2v-7q0 -3 -14 -3v20q33 14 43 14z" />
    <glyph glyph-name="asterisk" unicode="*" horiz-adv-x="301" 
d="M96 1399h16q43 0 55 -43l11 -4q5 3 19 3q19 -24 19 -30h6q9 0 27 3l22 -16q-18 -38 -47 -38q-36 -14 -36 -11l53 -65q10 0 10 -26q-16 -13 -33 -13l-60 55h8q0 -116 -38 -116h-2q-24 0 -42 47q10 0 10 -4v-1q-6 7 -6 5h2q-28 0 -46 29v7q11 31 30 31q4 11 9 18v-5
q-8 0 -61 22v22l58 20v-9q-31 27 -44 27v27q32 7 50 7q0 -7 14 -8q3 36 3 37l-7 11v18zM85 1236l13 -25h-36q3 25 23 25zM58 1223h25q0 -26 -25 -26v26zM111 1162l-5 3h-10q0 5 -3 5q3 -7 3 -11q13 0 15 3z" />
    <glyph glyph-name="plus" unicode="+" horiz-adv-x="664" 
d="M324 1047l16 -12h4q4 0 4 4q76 -48 76 -96q0 -10 -16 -212h4q44 5 120 52q22 4 36 4q36 0 36 -44q-16 0 -20 -32q-12 0 -60 -60q-48 -25 -120 -48l-4 -8v-12q0 -45 -8 -108h4l-4 -8q0 -243 -40 -300q-29 -71 -60 -72q-44 7 -44 44q7 4 16 4q0 12 -4 12l4 20v24
q0 211 12 396h-12q-45 0 -136 36h-16q0 14 -44 52v12h16q9 0 16 4q7 -4 16 -4q24 0 24 8q13 -8 24 -8h72l40 4l20 272h4q-40 45 -40 48v8l36 8h28v12z" />
    <glyph glyph-name="comma" unicode="," horiz-adv-x="279" 
d="M78 142q15 -5 15 -3l4 1h12l41 -25q84 -71 84 -139q0 -28 -45 -68q-2 -9 -24 -24q0 -9 -19 -9q-4 3 1 3q-7 -13 -16 -13h-2h-12q-16 -4 -35 -17h-5q-15 0 -16 8h-1q-13 0 -17 17l-12 2v16q15 10 51 57q21 14 32 36l7 23q0 46 -65 86v17q14 0 17 1v-10l-11 13v14
q2 14 16 14zM46 136h26v-12q0 -15 -21 -15l-5 12v15zM63 -60h22q-20 -37 -29 -37h-13v14q6 14 20 23zM59 -75v-19q-2 -12 -28 -26h-15v13q3 11 43 32z" />
    <glyph glyph-name="hyphen" unicode="-" horiz-adv-x="670" 
d="M562 703q54 -9 43 -80q-17 3 -30 -27l-79 -43q-49 -19 -225 -14q-13 -2 -50 4q-73 12 -155 77l-25 -1l-9 31q14 -2 13 -6q-4 37 -12 48l2 18l15 -2q28 -9 30 -9q6 -1 9 19l18 -3q11 -13 45 -27q274 -8 341 -1q3 13 69 16z" />
    <glyph glyph-name="hyphen" unicode="&#xad;" horiz-adv-x="670" 
d="M562 703q54 -9 43 -80q-17 3 -30 -27l-79 -43q-49 -19 -225 -14q-13 -2 -50 4q-73 12 -155 77l-25 -1l-9 31q14 -2 13 -6q-4 37 -12 48l2 18l15 -2q28 -9 30 -9q6 -1 9 19l18 -3q11 -13 45 -27q274 -8 341 -1q3 13 69 16z" />
    <glyph glyph-name="period" unicode="." horiz-adv-x="211" 
d="M78 200l58 -19q0 -6 22 -21l-3 -17v9q10 0 25 -46v-22q-14 -27 -20 -30q-5 -32 -34 -32q-9 0 -11 1q4 6 4 -3h-14q-47 19 -56 42q-25 18 -25 44q5 0 5 -9q-4 7 -9 29v22h13l9 -2q-4 0 11 19q7 0 10 3q0 -2 -6 19zM49 195q5 -2 14 -2q0 -15 -24 -42h-19q9 44 29 44z" />
    <glyph glyph-name="slash" unicode="/" horiz-adv-x="691" 
d="M704 1500h15q99 -56 99 -110v-7q-31 -43 -97 -174q-94 -165 -157 -302q-7 -5 -75 -162q-35 -57 -35 -86q-71 -129 -137 -273q-33 -69 -60 -109q-45 -106 -67 -127q0 -24 -62 -109q-68 -121 -88 -121q-31 -28 -30 -28q0 -12 -88 -26q0 13 -28 20q0 2 -4 2q0 40 57 123
l147 277q0 10 28 24q0 -8 -22 -8l68 131l14 -7h-4q0 -12 -12 -12v23q28 24 28 13h-23q11 20 11 36h30q6 0 12 32h10l-20 -10v21q9 49 26 49h14q0 -12 -8 -12q4 6 4 8h-16q24 75 51 98l-3 13q53 137 161 368q14 18 76 144q88 156 103 201v-8h8l-28 -14q0 32 -7 56q31 5 31 55
q50 -5 70 -5h4zM-142 -40h28v-32h-28v32z" />
    <glyph glyph-name="zero" unicode="0" horiz-adv-x="717" 
d="M448 1428h8q104 -35 104 -88v-20q0 -11 -8 -24q60 -63 88 -108q20 0 36 -64q7 -14 28 -84l-4 -8q16 -39 16 -160q0 -74 -16 -136h4q-12 -28 -28 -144q-11 -9 -52 -200q-8 -5 -28 -88q-31 -80 -36 -80q-38 -127 -148 -204l-64 -20h-32q-108 28 -144 48q-42 18 -112 88
l4 20q-27 61 -40 180q10 216 32 216q-4 14 -4 16q0 55 108 372q72 176 132 308q0 12 20 28q0 4 -4 4q24 38 24 52h-4l-32 -28h-8q0 29 44 52q0 24 56 24q0 11 40 16l16 -4q16 6 16 12v8h-28q0 6 16 16zM468 1204q-41 -37 -128 -260q-64 -134 -124 -412l4 -28
q-17 -112 -24 -136q4 -28 4 -32q0 -2 -4 -16q8 -13 8 -24v-24q8 -148 64 -148h8q0 5 20 20q4 -8 4 -12h4q83 72 152 324q33 148 48 148q0 4 -4 12q2 23 12 36v4l-4 8q19 16 28 48q-4 8 -4 12l4 28h4l8 -4l-4 -20v-8h8l16 84h-4q-8 0 -12 -32q-15 0 -24 -16q0 4 -4 4
q0 27 36 60q13 0 16 52q4 0 4 4v12q-9 0 -12 20q-8 0 -8 8v80q0 4 -4 4l4 8q-5 44 -24 44q-16 0 -16 8q12 4 12 24v4q-25 0 -44 84q-12 32 -20 32zM496 1200v-12h4q8 0 8 8l-8 4h-4zM504 1172q19 -64 28 -64h8q-8 40 -24 72h-4q-8 -1 -8 -8zM528 1040q13 -8 20 -8v-32
q0 -8 -8 -8h-8q-8 26 -8 36q4 8 4 12zM536 980h8v-8q-8 0 -8 8zM540 892h4q8 -1 8 -8l-8 -4h-4v12zM556 880h12v-8h-4q-8 0 -8 8zM540 864h8v-8h-8v8zM80 796h4v-12h-12v4q1 8 8 8zM512 588h4q10 0 24 84h-4q-11 0 -24 -84zM500 560v-16h4q8 0 8 8v8h-12zM492 512v-12h4
l4 20q-8 -1 -8 -8zM0 276q9 -1 36 -84q4 0 4 -4v-8q0 -8 -8 -8q-32 79 -32 104z" />
    <glyph glyph-name="one" unicode="1" horiz-adv-x="543" 
d="M400 1436h4q64 -10 132 -72q0 -5 12 -32l-68 -256q-80 -271 -80 -340l-28 -76q4 -12 8 -12q0 -13 -32 -76q0 -17 -48 -196q-30 -145 -56 -184l4 -8q-40 -84 -100 -148q0 -32 -52 -32l-24 -4q-27 19 -72 40v8q0 5 32 16l4 28q-4 8 -4 12l8 4l16 -20q12 24 44 132v28l8 12
l-4 20q8 0 20 68q4 0 4 4v12l-4 24q10 25 24 96l-4 16q11 8 40 132v24l-4 8q12 4 12 8l40 184q16 59 16 64l-8 16q5 64 20 64v4q23 131 48 160q0 13 12 48v4q0 4 -4 4q24 49 24 136q-8 20 -12 20q0 11 48 32q13 -8 24 -8q4 12 8 12q-8 13 -8 24zM276 1044v-8h8v8h-8zM40 208
h8v-16h-8v16zM44 180h12q0 -4 4 -12q-11 -44 -16 -44h-4q0 24 -12 24v8q16 12 16 24z" />
    <glyph glyph-name="two" unicode="2" horiz-adv-x="912" 
d="M704 1400h20q61 0 152 -80q40 -49 40 -108q0 -103 -104 -260q-104 -192 -116 -204l-164 -252q-42 -50 -72 -104q-55 -67 -100 -144l20 -4q209 71 356 140q44 -10 44 -20q-11 -19 -20 -68q4 0 4 -4q-76 -81 -76 -84q-31 -30 -140 -80q-13 -13 -144 -44q-169 -67 -240 -84
q-77 16 -164 116v12q30 8 36 8h24v20q8 0 16 20q31 0 60 48q15 43 56 72q-8 13 -8 24q30 0 52 52v4q0 4 -4 4q0 17 40 24q0 7 48 60v16q31 0 44 64v8h4l12 -8q0 33 44 56q4 8 4 12q-8 0 -8 8q14 24 20 24h4l8 -4q28 37 28 60q16 0 32 60q19 0 44 72q20 0 40 64q9 0 28 48
q54 95 92 200h-8l-28 -4q28 68 28 112h-4q-124 -42 -236 -240q-70 -132 -140 -132q-49 0 -104 76h-4l-8 -4l-20 32v4q62 28 96 116q69 108 184 208q157 88 232 88zM44 196v-8q0 -6 -12 -12h-4v4q0 6 16 16zM8 164h8v-4h-8v4z" />
    <glyph glyph-name="three" unicode="3" 
d="M784 1404q104 0 188 -152q0 -10 12 -48v-40q-28 -115 -84 -196q-64 -66 -64 -88v-12q136 -78 136 -144q12 -9 12 -28v-44q-13 -118 -48 -188q-37 -92 -84 -140q0 -14 -44 -48q0 -19 -132 -124q-12 0 -152 -84q-67 -40 -244 -68h-36q-87 10 -160 56q0 6 -32 28l4 8v8
q0 12 -56 44v4q51 -4 64 -16h52q28 8 32 8h4q18 -24 40 -24h40q104 13 104 16q0 14 36 20q20 16 92 44q4 17 20 28l8 -4h4q82 32 192 164q0 33 48 80q20 63 44 108q4 15 4 36q-4 0 -4 4q13 0 16 60l-4 8l4 24v40q0 8 -8 8h-24q-67 0 -180 -128l-92 -56q-64 19 -92 72
q-8 0 -8 16l4 20q-27 0 -36 20q112 63 136 84q0 16 8 16l16 -4q81 27 212 228l28 56l-4 20q25 88 36 112q8 0 8 28v12q0 8 -8 8h-12q-100 -39 -268 -216q-22 -19 -60 -92q-29 -16 -32 -16q-92 4 -92 28l-64 56q20 0 104 120q189 213 316 244q65 24 100 24z" />
    <glyph glyph-name="four" unicode="4" horiz-adv-x="770" 
d="M664 1464h8q96 -68 96 -96v-24q-28 -167 -120 -472l-80 -256q0 -60 -44 -148q0 -16 -32 -112q-32 -88 -68 -248q-8 0 -28 -72q-27 -30 -76 -36h-16q-15 0 -80 44q-7 0 -20 20h-8v20q0 18 24 72q4 14 4 16h8l-4 -28v-20q11 0 24 -8q4 12 8 12q0 4 -4 4q8 30 8 56v4
q20 0 20 12q0 6 20 76q-7 4 -16 4q24 11 24 28v8q-8 10 -8 12v12h8l8 -4q14 67 24 88q0 22 56 200q24 69 24 92q-4 0 -4 4l-28 -4h-36q-29 8 -76 12l-16 -4q-160 11 -160 28q-75 42 -92 84q-12 0 -12 8v12q0 4 44 36h4q0 -17 -16 -32v-8q38 0 160 172q32 56 76 108
q13 48 56 124v36q0 3 -24 28q15 14 60 28q0 4 8 4l28 -4l4 8v16h-8v4q1 8 8 8q72 -25 76 -36q28 -29 28 -72q0 -11 -112 -208q-20 -22 -96 -140q-21 -18 -40 -68l8 -4h112q24 0 52 20q4 0 4 -4q76 42 76 120q8 0 16 40l-4 8q36 96 64 232h4q-8 16 -8 24q20 41 20 80
q-3 29 -12 40v4q0 12 48 20l24 -12h4q8 0 8 8v8q-8 10 -8 12v4zM584 1376q8 -1 8 -8l-8 -4v12zM292 1264v-16h-8v8q1 8 8 8zM160 1040v-4q0 -8 -8 -8v4q1 8 8 8zM100 956v-4q-4 -8 -4 -12h-8v4q0 6 12 12zM88 932v-12h-8v4q1 8 8 8zM280 404h4v-8h-4v8zM276 388v-4
q0 -8 -8 -8v4q1 8 8 8zM260 340h8v-12q0 -6 -12 -12h-4q8 16 8 24zM252 296h4q-4 -8 -4 -12h-8v4q1 8 8 8zM244 248h4q-5 -28 -12 -28h-4v4q4 24 12 24zM272 212h8v-8h-8v8zM232 204h4v-4l-4 -20q-8 0 -8 8v8q1 8 8 8z" />
    <glyph glyph-name="five" unicode="5" 
d="M508 1472h12q19 -23 56 -36q28 -34 28 -48v-44q45 19 240 44q33 5 52 12v12q7 4 16 4h4q80 -18 80 -84q-8 -1 -8 -8q0 -4 4 -12q0 -54 -76 -64q-31 -28 -156 -28q-22 -11 -204 -48q-48 -9 -48 -52q-26 -44 -80 -212l-16 -84h4l-4 -8q1 -8 8 -8q75 48 180 48h8
q96 -30 156 -124q4 -12 8 -12l-4 -8q8 -15 8 -32l-24 -116q-86 -196 -196 -332q-178 -174 -244 -200l-64 -20q0 8 -8 8q-5 0 -84 -20q-54 0 -124 60q-26 20 -32 20v12q28 18 28 24h4q36 -18 36 -24q4 0 4 4l20 -4h8q2 16 12 16q4 -12 24 -12q115 79 128 100q26 0 96 80
q7 0 44 52q70 66 132 188q60 125 60 164v12h-16l-8 -20h-4q0 20 -8 20h-16q-23 -9 -96 -16h-8q-64 0 -160 76q-76 60 -76 104v4l8 4q4 -32 12 -32h4l-4 28l8 4l8 -4q8 26 8 36v36l28 32l-8 20q13 0 32 76q56 134 56 144q-21 29 -44 52l4 8v4q0 6 -44 24l-4 8v4h96
q39 0 60 100q-16 0 -16 12l4 20h12q23 0 40 16q7 0 36 -12q18 8 20 16q0 8 -12 8v8zM868 1412h12v-8h-12v8zM252 1052q0 -4 4 -4q-8 -16 -8 -24l-8 4q5 24 12 24zM240 1024h4v-8h-4v8zM552 636h8q-4 -8 -4 -12h-8q4 8 4 12z" />
    <glyph glyph-name="six" unicode="6" horiz-adv-x="954" 
d="M399 1303q22 -16 62 -25q48 -46 48 -61v-35q-32 -71 -62 -110q-96 -183 -141 -299q-27 -59 -38 -113q-7 0 -51 -155q0 -22 -18 -72q0 -4 4 -11q-11 -87 -17 -110q7 -11 7 -20v-45q11 -69 48 -69q1 -7 7 -7h27q0 4 4 11q-4 0 -4 3l10 7q0 -4 18 -17q0 7 6 7l-6 13l3 14
q0 11 -14 83v41q21 71 21 76l-4 6q24 48 35 100q44 89 75 138l52 62q65 82 120 116q9 16 86 35h4q7 -4 10 -4q11 7 17 7q11 -7 21 -7h14q3 0 27 7q15 -8 69 -13q110 -64 110 -124v-4l-7 -24q7 -11 7 -20q-9 -23 -21 -110q-17 -22 -34 -69l-31 -52q0 -39 -299 -326
q-69 -47 -100 -73q-79 -34 -110 -34h-27q-73 0 -162 55q-44 25 -93 69q-26 8 -65 99q7 12 7 21q0 6 -14 31q7 11 7 21q-7 11 -7 17q0 8 3 14q-3 19 -3 31v34q9 58 21 86l-4 21l21 72h-4q21 48 21 69h-3l48 127q10 34 48 124q34 92 141 292v3q-10 17 -10 28q30 9 30 34h4
q7 -7 21 -7q0 5 6 14l24 -3h25l10 6q-3 14 -7 14q3 11 7 11zM475 319v-3q6 0 65 58q129 117 182 217q34 62 41 103v21q-84 -23 -182 -162q-82 -141 -82 -179q-24 -31 -24 -55zM389 670v-7q0 -5 -11 -10v7q0 5 11 10zM327 419v-4h7v4h-7z" />
    <glyph glyph-name="seven" unicode="7" horiz-adv-x="875" 
d="M747 1443h16q30 -36 44 -36q5 -15 36 -28q32 -40 32 -56q-40 -102 -176 -384q-72 -159 -356 -712q-60 -100 -116 -224l-76 -144q0 -21 -84 -44q-100 20 -100 72q21 88 48 88q8 0 8 8t-12 8q1 8 8 8v-4q16 0 56 108h-12q0 13 32 24q0 14 28 60l276 528q75 168 100 240
q56 84 108 228v12l-4 20h-12q-238 -68 -316 -68h-20q-46 0 -148 68q-31 47 -52 60l28 8q200 9 220 36q38 0 316 84q35 16 128 40zM-53 -33v-16h-8v8q1 8 8 8zM-61 -89h4l8 -4q-4 -8 -4 -12h-16v8q1 8 8 8z" />
    <glyph glyph-name="eight" unicode="8" horiz-adv-x="833" 
d="M647 1426q13 -6 39 -58q13 0 42 -54h20v-8l-8 -27h4q27 23 46 27q23 -10 23 -96v-16q0 -4 4 -4l-4 -7q4 -21 4 -23q-32 -76 -66 -128q0 -35 -73 -150q-4 0 -54 -54q-37 -36 -39 -47q1 -6 70 -58q143 -122 143 -235v-23q0 -111 -39 -151q0 -20 -35 -69q-29 -64 -88 -108
q-37 -46 -120 -108q-63 -27 -104 -66q-70 -12 -81 -12h-39q-20 -15 -35 -15q-117 18 -162 66l-69 54q-20 20 -54 77q-22 15 -35 42q0 6 12 12l23 -4q0 10 23 23q0 17 38 120q43 88 43 108q79 144 120 197q7 0 42 54q38 0 50 58q-4 0 -4 4q31 0 31 27q-96 78 -162 177
q-15 18 -38 151q0 100 92 150q5 11 74 46q18 10 23 24q17 0 34 38q19 9 93 12q0 22 143 38v4q12 -7 23 -7h31zM292 1341l4 -8v-11l-58 -16v8q42 27 54 27zM308 1075v-51q0 -51 96 -135h27q0 36 46 51q6 25 51 42q0 21 11 39q-12 7 -19 7v12h11l20 -12q45 36 50 50q0 6 8 16
q-4 0 -4 4q-21 -8 -35 -20h-4v4q31 54 66 74v19q26 27 38 66q6 0 12 11v4l-27 8h-8l-19 -4q0 7 -31 19q-110 -37 -174 -85q-55 -16 -115 -119zM172 1279h4q8 -1 8 -8q0 -5 -35 -30q0 -26 -38 -35v11q6 23 61 62zM724 1248v-7h4v7h-4zM111 1206q0 -4 4 -4l-4 -23h-12v4
q3 23 12 23zM196 125h11q35 12 35 16q15 0 15 -27h20q4 13 4 15q33 -4 42 -4l4 8v4h-19q-20 10 -20 15q0 6 47 27l19 -4q1 8 8 8q8 0 11 -19h4q7 9 81 65q104 114 104 143v4h-15l-70 -104q-20 -33 -65 -50q-12 -30 -23 -35q-20 5 -20 11t23 12q13 22 89 112q34 22 50 77
q27 44 39 120v62q-19 47 -77 81h-8q-41 -36 -104 -128q-23 -22 -93 -139q-5 -1 -38 -65q-36 -68 -54 -151v-54z" />
    <glyph glyph-name="nine" unicode="9" horiz-adv-x="728" 
d="M449 1389h3q17 0 110 -73q34 -39 41 -88h3l19 14h40q58 -58 66 -84v-4q-84 -279 -191 -579q-22 -57 -40 -140q-18 -32 -84 -238q-70 -175 -122 -338q-17 -60 -25 -69q-21 -20 -77 -37h-22q-55 30 -55 66l36 121q2 15 11 15l-3 25v8q0 4 29 84h7l8 -4l3 8l-11 18l4 7l7 -3
h8l3 25v4q-11 0 -11 7q0 8 11 8v11q0 3 -3 3q7 22 14 22q4 -7 4 -11q11 4 11 22v4l-4 18q22 0 33 67q33 57 33 91q8 0 45 125q0 3 29 77q0 15 81 260v4q-16 0 -96 -77q-94 -84 -150 -84h-8q-105 0 -212 165v18q-19 3 -19 11v4h19q0 15 11 22l-8 18q0 41 26 99q0 31 26 52
q24 42 29 62q-4 7 -4 11q0 6 37 48q0 33 26 33v18q17 11 62 73q68 66 117 66h30q5 0 11 11q50 -3 77 -11h15v15zM170 1316h3v-8q0 -5 -22 -22h-11q22 18 22 26zM610 1272q26 -7 26 -15q-4 -7 -4 -11h-7q0 7 -15 22v4zM166 875h4q-8 -11 -8 -22q11 0 11 -14q85 28 272 227
q26 27 73 96q-12 44 -36 44q-3 14 -63 33q-41 -11 -110 -88q-86 -109 -136 -235q0 -10 -7 -41zM-28 963h3v-11h-7q4 8 4 11zM129 13v-3q0 -8 -7 -8v4q1 7 7 7zM122 -5l4 -7l-8 -4h-3v4q1 7 7 7zM107 -49h8l-15 -95q4 -21 4 -33q-4 -8 -4 -11h-11q-6 0 -11 18z" />
    <glyph glyph-name="colon" unicode=":" horiz-adv-x="211" 
d="M68 480l58 -19q0 -6 22 -21l-3 -17v9q10 0 25 -46v-22q-14 -27 -20 -30q-5 -32 -34 -32q-9 0 -11 1q4 6 4 -3h-14q-47 19 -56 42q-25 18 -25 44q5 0 5 -9q-4 7 -9 29v22h13l9 -2q-4 0 11 19q7 0 10 3q0 -2 -6 19zM39 475q5 -2 14 -2q0 -15 -24 -42h-19q9 44 29 44z
M99 203l44 -23q0 -6 27 -19q29 -26 39 -60q0 -10 -22 -34q-35 -46 -115 -68l-5 3l-21 -4v-2l7 3q-28 9 -28 28v-1q-9 0 -9 20q0 6 15 34h20v-13l-1 -9l-11 6q1 3 20 75q0 2 -14 26q15 0 16 1v1q0 2 -4 9q4 6 4 -2q1 0 -13 27h19l17 -2q6 4 15 4z" />
    <glyph glyph-name="semicolon" unicode=";" horiz-adv-x="216" 
d="M5 497h24l11 -7h1l15 10q16 -16 63 -27q0 -9 60 -59q19 -38 24 -79q-37 -12 -37 -32q-24 15 -32 15t-8 -8q-44 0 -121 112v11q0 5 7 37l-7 10v17zM41 121q1 0 24 -2v5q128 -39 128 -106q3 -4 3 -15q0 -28 -37 -75q0 -20 -65 -65q-16 0 -16 -6q1 1 -43 -17q-12 15 -12 13
h-16q0 27 34 117q0 10 11 50v25q0 14 -21 14v15q0 10 7 14q0 -7 -13 9v9q2 15 16 15zM110 168v-13q0 -17 -16 -17q-15 0 -17 16v14h33zM53 -118h-14v-9h14v9z" />
    <glyph glyph-name="semicolon" unicode="&#x37e;" horiz-adv-x="216" 
d="M5 497h24l11 -7h1l15 10q16 -16 63 -27q0 -9 60 -59q19 -38 24 -79q-37 -12 -37 -32q-24 15 -32 15t-8 -8q-44 0 -121 112v11q0 5 7 37l-7 10v17zM41 121q1 0 24 -2v5q128 -39 128 -106q3 -4 3 -15q0 -28 -37 -75q0 -20 -65 -65q-16 0 -16 -6q1 1 -43 -17q-12 15 -12 13
h-16q0 27 34 117q0 10 11 50v25q0 14 -21 14v15q0 10 7 14q0 -7 -13 9v9q2 15 16 15zM110 168v-13q0 -17 -16 -17q-15 0 -17 16v14h33zM53 -118h-14v-9h14v9z" />
    <glyph glyph-name="less" unicode="&#x3c;" horiz-adv-x="975" 
d="M753 1080h14q0 -29 -19 -29h-16q4 29 21 29zM783 1066q11 -7 79 -28l25 -24l-11 -26l4 -21q0 -55 -218 -146l-275 -167l-86 -60v-8q0 2 111 -27q304 -131 439 -230q65 0 107 -57q-8 -72 -56 -72h-4q-50 0 -177 78q-259 132 -437 180q-163 30 -235 93q-44 51 -44 90h39
l32 -9v0l-3 16q0 21 18 45v-9h-9v29h28q62 0 62 18q19 0 188 114q14 0 193 103l175 89q17 29 55 29z" />
    <glyph glyph-name="equal" unicode="=" horiz-adv-x="738" 
d="M640 818q40 -5 92 -67l-4 -13l5 -1q-31 -64 -101 -55q-297 -9 -303 -8q-107 -10 -155 -3q-64 8 -87 120q12 -1 11 -3l1 1l-10 20q34 13 34 9q-3 8 2 48l35 -60h-2q133 11 157 7q21 -6 20 -6q2 13 232 9zM570 630l81 -11q37 -5 39 -61q-22 -9 -26 -37q-18 2 -66 -20
q-198 11 -486 5q-6 0 -49 2q-64 21 -57 70l1 10q19 42 65 36q50 13 255 22l56 -7q143 -19 187 -9z" />
    <glyph glyph-name="greater" unicode="&#x3e;" horiz-adv-x="928" 
d="M236 1087q31 -47 315 -186q45 -43 273 -161q106 -97 95 -134l5 -1q-20 -68 -384 -277q-303 -157 -366 -181q-41 12 -66 -1q-60 18 -69 74l3 12q9 29 304 178q335 183 343 211q25 15 27 22q-50 41 -404 206q-64 44 -89 125q2 6 -11 32l7 23l19 -5l1 4v0l5 -2l-4 -14l-31 9
q16 28 27 66z" />
    <glyph glyph-name="question" unicode="?" horiz-adv-x="817" 
d="M542 1408h81q105 -34 141 -96q34 -66 42 -111q-7 -106 -34 -157q-58 -66 -104 -127q-138 -138 -138 -146q-226 -211 -229 -249q-39 -46 -39 -134q0 -95 35 -131q7 -14 7 -30l-42 -31q-64 28 -99 97q3 6 3 14q-22 11 -42 104v27l7 12l-11 15v7q16 14 16 27v12h-9
q0 4 20 27l-8 11v4q9 0 15 8l-3 7q0 3 12 11l-5 9q6 15 27 38q0 9 39 50q0 7 46 38q-5 8 -5 12q21 0 93 91q190 170 268 281q50 79 50 129q4 0 4 4q-8 62 -43 62q-9 0 -30 4q-99 0 -226 -107q-134 -163 -134 -226l4 -27q-13 -1 -31 -39q4 0 4 -4h-4l-50 16v4l-7 -4
q-13 0 -32 31q5 0 5 3q-5 0 -5 4l8 4l4 -8h-4q0 -11 19 -19q0 3 5 3l-32 50q5 8 5 13q-12 18 -12 30v27l12 -8h11q0 71 118 214q128 125 215 138q0 4 62 16zM313 119q39 -4 45 -4v4q10 0 29 -44h-3q-8 -1 -8 -8v-4q0 -8 4 -14q-19 -75 -93 -75q-13 0 -112 40q0 9 -3 9
q3 10 7 10q0 24 -19 45v15q2 8 8 8q12 -8 23 -8h40q39 0 82 26z" />
    <glyph glyph-name="at" unicode="@" horiz-adv-x="2019" 
 />
    <glyph glyph-name="A" unicode="A" horiz-adv-x="843" 
d="M638 1266l76 -8q8 4 13 4q84 -44 84 -52q4 0 9 -12q-17 -105 -17 -116q0 -3 4 -24q-51 -121 -72 -288q0 -4 4 -4q-8 -16 -8 -28h4q-7 -22 -25 -112l8 -4q77 0 224 36q50 0 50 -28q0 -4 13 -4v-4q-41 -35 -76 -48q-50 -19 -211 -40q-29 0 -38 -128q-11 0 -33 -204
q-5 0 -5 -4l5 -24q-16 -78 -21 -204h4l-4 -8v-4q0 -63 4 -128l-4 -28v-36q-9 -1 -9 -8q16 -69 42 -108q-5 0 -25 -24h-13q-65 0 -97 112q5 7 5 16q-16 0 -21 84v16q0 9 4 16q-7 13 -13 40l4 8v64q0 9 -4 16q9 37 9 92h-5l5 8q0 3 -5 24q10 79 17 108q-8 13 -8 20l12 12
q0 4 -4 4q18 176 30 236l-9 4h-4q-190 -20 -190 -44q-33 -73 -168 -444l-34 -16q-118 4 -118 48q-19 8 -21 16v4q40 24 67 136q30 55 47 144q16 22 46 92q0 11 -109 32l-21 20q4 7 4 16h-26v4q0 3 13 12l21 -4h4q165 32 165 44q31 26 42 68v12q30 15 93 144q-5 8 -5 12
q21 0 43 44v20q7 0 16 20q24 0 127 180q88 122 88 132q-4 8 -4 12q5 0 34 36v8q-13 0 -13 8v4zM605 902q0 -18 -81 -116q-101 -157 -101 -196h13q135 8 135 40q0 28 8 28l-4 8q8 6 21 124q-4 8 -4 12l17 68l-4 8q4 7 4 16v8h-4z" />
    <glyph glyph-name="B" unicode="B" horiz-adv-x="900" 
d="M703 1296q153 0 204 -93q36 0 46 -94q0 -130 -141 -312q-19 0 -75 -82v5q141 -79 141 -176v-58q-15 -123 -120 -257q-113 -120 -210 -177q-137 -78 -249 -86q-126 22 -155 49h-1q-21 -18 -62 -41q-43 0 -95 70q28 47 42 47h1l14 66q-3 6 -3 15q43 151 54 173l-4 7
q124 398 124 462q9 15 9 30v14h9q-137 -116 -163 -154q-10 0 -27 -13q-77 21 -77 43v11l-2 -4q-9 0 -24 27q117 155 123 155l21 9v-26l-23 -33v19q68 50 157 158q58 47 58 51q-12 25 -24 39v9q4 17 21 17l12 -2q0 6 26 6q16 -8 27 -8h-1q0 3 53 19q182 108 285 111q0 4 29 4
zM345 643q22 6 158 81q106 8 106 45q29 0 123 168l65 156q0 60 3 68q-8 26 -31 26h-38q-107 0 -296 -130q-32 -120 -90 -414zM392 501q-74 21 -84 33q-3 0 -32 -111l-89 -306v7q4 0 21 -47q33 -10 44 -10h9q97 0 262 128q106 81 181 250q22 83 22 97h-13l13 21q0 55 -53 72
h-13q-167 -134 -268 -134z" />
    <glyph glyph-name="C" unicode="C" horiz-adv-x="957" 
d="M554 1319q12 3 37 -7l69 12l24 8l2 -13l10 2q95 4 106 -61q5 1 16 -34q-38 -139 -41 -233q-29 -212 -44 -220q-7 -6 -18 -8l-15 -3q-30 -5 -91 26l-13 -11l-32 41q37 227 65 329l-1 5q-2 9 -11 7q-9 -1 -28 -46q-11 -2 -62 -80q-87 -118 -158 -258q1 -8 -88 -167
q-90 -253 -86 -320q-46 -146 -31 -232l7 -40q63 -137 107 -129q2 -12 77 -1q158 27 441 468q59 91 57 102q-2 15 35 34q-2 10 22 54q-7 37 46 77q58 130 81 153l16 -7q16 17 28 19q0 -5 5 -4q-1 -24 0 -27l10 -31q-65 -156 -57 -199q7 -8 8 -13q-19 -91 -136 -272
q4 -22 -246 -338q-115 -103 -193 -116q-259 -45 -414 123q-35 48 -55 111l-2 69q-7 6 -8 17q64 367 186 623q7 1 17 26l-3 13l-10 -2q0 10 9 11l4 1l2 -9q7 1 33 42l-11 12q8 21 39 63q2 -14 8 -13q18 8 15 26l-10 -2l-8 -6l-1 4q14 48 169 256l135 152l-1 5l-24 -5l-2 9
q6 1 14 7zM234 830v-4l5 1q10 1 8 10l-1 9q-7 -1 -12 -16zM1023 827l10 2q-3 -43 -18 -45l-5 -1l-2 9q16 26 15 35z" />
    <glyph glyph-name="D" unicode="D" horiz-adv-x="824" 
d="M450 1303q101 0 198 -60q172 -86 257 -328q9 -31 22 -112q-4 -7 -4 -16v-8q0 -4 4 -4q-4 -16 -9 -16l5 -40v-4q0 -65 -77 -248q-42 -33 -112 -136q-43 -58 -95 -116q-10 -27 -63 -64q0 -15 -72 -68q-68 -73 -247 -140q-29 -12 -45 -12h-50q-135 43 -135 72q-9 0 -9 28
l14 8h9q26 -28 85 -28q45 8 126 52l68 48q16 7 36 32q79 33 198 188q69 94 121 192l63 140l23 132q0 30 4 44q0 153 -67 232q-44 94 -131 132q-18 0 -36 4q-103 0 -103 -28q0 -16 -14 -76h5q-77 -297 -86 -356q-12 0 -58 -200q0 -16 -36 -88q-84 -356 -122 -356
q-20 -23 -72 -40q-45 10 -45 32v16h-9v-8h-4q-9 0 -9 8q0 6 13 12q2 -8 9 -8h5q18 126 49 244q14 4 14 24q0 9 -5 16q26 46 36 112q59 164 59 188h-5q18 72 54 172q0 12 14 68v8q0 4 -5 4q14 12 41 160v4q0 11 -68 20q0 8 -49 60q-5 7 -5 16h5l31 -4q72 38 72 60
q35 12 207 36z" />
    <glyph glyph-name="E" unicode="E" horiz-adv-x="707" 
d="M966 1318q52 -18 52 -56q-52 -16 -52 -32q-181 -72 -396 -72q-120 0 -120 -44q-14 -29 -14 -68q197 15 272 52q59 24 72 24h4l34 -32q-5 -22 -5 -36q-18 0 -100 -64l-329 -72q0 -13 -29 -92h5q-27 -39 -57 -152q-115 -321 -115 -436q-10 -47 -14 -108l4 -16q0 -2 -4 -16
q7 -52 24 -52l176 200v4h-5q-9 -4 -14 -4l43 24q8 37 81 88l86 80q-5 0 -5 4l-52 -32h-5l76 64v-16h10l9 4v-16q24 16 29 16l5 -8q-5 0 -19 -16q9 -13 9 -24q-47 -69 -71 -144q-8 0 -86 -124l-134 -180q-59 -24 -71 -24h-58q-63 9 -143 48l5 8q-33 0 -57 100q5 22 5 36v4h9
v12h-9v12l9 -4q0 13 5 68q-9 4 -14 4v12q0 13 14 28q-10 13 -10 20q10 26 10 36l9 -4h5v16l-9 12l4 28l10 -4l5 8v16h-10v4q14 0 14 4q0 16 10 48q-10 0 -10 8q20 17 20 32v4q0 4 -5 4q11 36 28 52q-4 8 -4 12q4 8 4 12h-4q12 32 23 32l-4 8q13 61 28 72l-4 8l38 88l4 20h-4
q14 23 19 40q-5 7 -5 16q-77 -12 -134 -12q-109 28 -109 76q-5 0 -5 4q5 8 5 12l33 -4l24 4q0 -8 14 -8q205 60 234 76q33 81 33 104h-76q-133 29 -133 56q-20 14 -20 32h10v4l-14 16v4h9l15 -8l23 4q2 -8 10 -8q199 34 215 44v12l-19 20q0 8 52 12q50 0 86 -36l229 12v-4
l71 12q11 0 19 -4q47 12 62 12l34 -4q0 8 110 28z" />
    <glyph glyph-name="F" unicode="F" horiz-adv-x="603" 
d="M1144 1368q28 -12 34 -26q-4 -8 -4 -12q4 -9 4 -13q-9 0 -43 -26q-101 -26 -219 -38q-313 -39 -400 -65v-42q0 -16 -77 -300q0 -13 4 -13q135 41 361 69q0 9 60 34q0 -4 39 -26l-9 -17q5 -7 5 -17q-71 -71 -121 -81q-302 -91 -387 -129q0 -11 -77 -312l-90 -393
q-34 -44 -78 -56q-73 0 -73 43q0 24 -21 34q0 3 -9 26h13q8 -19 8 -22h5q15 0 38 189q48 186 61 218q4 0 4 4v13q0 4 -4 4q21 63 47 184v4h-4q-55 -13 -82 -13q-120 31 -120 90q8 0 8 9v4q-17 0 -17 13h4q14 -9 26 -9h22q219 81 219 95l90 346v4q-13 0 -163 -60
q-86 -17 -95 -17q-15 0 -94 43v9q4 28 12 30q-1 15 -21 30q13 4 13 8q4 0 47 -21q359 145 529 158q108 20 357 34q23 -4 39 -4q14 8 25 8h5l25 -4q9 8 104 13z" />
    <glyph glyph-name="G" unicode="G" horiz-adv-x="953" 
d="M559 1301l-1 -8h-8q2 8 9 8zM570 1295q155 -15 187 -102q8 -1 6 -21q-3 -29 -71 -33q0 8 -8 8l-4 1l-20 -2q1 8 -7 9h-8q-62 -8 -169 -120q-135 -144 -233 -330l-1 -4q0 -4 4 -4q-1 -4 -25 -46l4 -1q-62 -139 -71 -230q-17 -169 81 -277q14 -14 35 -16l20 -2
q97 -9 213 124q101 100 120 161q51 65 102 215v4l-2 20q12 39 15 71q11 105 -18 143q3 23 -9 25q-1 -8 -9 -8l-4 1q1 10 -6 21l1 4l12 -2q8 -1 16 3q11 -5 11 -9q4 -1 4 3q39 -5 84 -44q0 -7 49 -78q38 -33 39 -56q-1 -2 5 -64l-8 -84q0 -4 4 -4l-5 -8l-1 -12q-1 -9 2 -16
q0 -4 -4 -4q-2 -60 -5 -88l-3 -28q-2 -22 -9 -55q3 -8 2 -12l-38 -189q2 -15 0 -41q-32 -54 -70 -178q-7 1 -35 -68l-86 -93q-149 -186 -230 -178q-13 -18 -58 -14l-48 5q-15 15 -92 45q2 19 -23 55q5 45 -22 58q-3 7 -2 16q2 8 8 8l4 -1q-2 -28 25 -30q14 6 25 5
q5 -12 56 -50q-1 -5 10 -13l12 -1q67 12 181 159q144 197 148 239h-4q31 24 36 81q-7 1 -71 -66q-94 -73 -127 -71q-26 -19 -103 -22l-40 4q-181 54 -254 150q-95 142 -85 237l-8 5q0 -4 -4 -4l-3 9l1 16l8 -1l-1 -8l4 -1l6 16q2 20 -18 22l4 44q1 3 12 31l7 -5
q12 15 46 136q55 115 72 158q14 4 43 72q-7 4 -16 5q10 12 10 19h4l-1 -12l12 -1q6 -1 13 11l1 8q1 8 -11 9l1 8q17 26 40 44q8 -5 12 -5q50 57 51 71v4l-21 -14l-4 1q19 26 27 25h4l-1 -8q33 12 36 40l-8 1v4q1 2 18 18l8 -4l4 -1q6 0 13 15q-12 1 -11 9l17 10l-1 -15
q14 1 26 21v4q-8 1 -7 5q91 89 151 105q1 10 34 21l-3 8v4zM236 1003l8 -1q-8 -15 -14 -14l1 4q5 7 5 11zM210 945h8l1 7q-8 0 -9 -7zM197 935l-1 -12q8 -1 9 7v4zM138 864h4l-1 -8h-4zM128 845h4l-1 -8h-4zM89 776h4l-1 -12l-4 1zM53 700l8 -5q-5 -7 -6 -16l-7 5q4 7 5 16z
M42 669l4 -1l-1 -8l-4 1zM13 583l8 -1q-4 -7 -5 -11h-8q5 8 5 12zM6 548l8 -1q-5 -8 -5 -12l-8 1q4 7 5 12zM-14 385l4 -1q9 -1 8 -41l-8 1q-5 35 -4 41z" />
    <glyph glyph-name="H" unicode="H" horiz-adv-x="944" 
d="M940 1400q61 -7 140 -64l8 -12q-104 -223 -104 -240q-12 -59 -36 -104q4 -8 4 -12q-20 -53 -40 -124q4 -7 4 -16q63 8 108 8q0 8 28 12q84 -14 84 -36q0 -47 -248 -88q-11 -7 -32 -96l4 -16q-8 -17 -48 -216h4q-8 -14 -24 -116l4 -28q-20 -28 -32 -148q-8 -4 -12 -4
q0 -3 4 -24q0 -4 -4 -12q8 -39 8 -44q-20 -19 -20 -44q3 -16 8 -16l-8 -16q0 -4 4 -12q-4 -21 -4 -24l4 -36q0 -58 -64 -76l-44 -12q-39 0 -80 68v8h4l16 -16h4q0 8 4 8l-20 80v20q0 8 12 8v32q-12 0 -12 8q8 16 12 16q-5 47 -12 56q20 70 20 72l-4 20q4 7 4 16q-4 8 -4 12
q8 0 8 8v8h-8v12q14 0 24 80q3 0 12 24v16q0 4 -4 4q5 6 8 40q-4 7 -4 16q8 0 20 56v12h4v8q16 63 16 68h-8v12h16l20 132h-28q-9 0 -16 -4l-8 4q-57 -4 -84 -12l-20 4q-140 -12 -140 -28q0 -20 -24 -124l4 -8q-7 -15 -20 -84l4 -8l-20 -72l4 -8v-4q0 -18 -20 -52
q0 -9 4 -16q-52 -134 -84 -196q0 -13 -68 -76q0 -16 -76 -52q-12 0 -12 -4q-52 16 -52 20q0 19 32 64l32 112q32 117 44 140h-4l36 172q-4 7 -4 16q0 24 20 24v12q-8 10 -8 16q8 18 16 60q-4 8 -4 12q8 13 8 24q-8 10 -8 12q-14 -4 -16 -4q-79 0 -136 28v8q12 0 20 16h-28v8
q48 12 68 24l20 -4h16q21 10 92 28q8 10 8 16q-4 8 -4 12q8 0 8 8v4q0 4 -4 4q28 102 36 160q5 1 28 96h-4q20 57 20 104q-4 0 -4 4l-40 -20q0 4 -4 4q0 30 32 84q4 7 4 16v12h-8v8q0 8 48 24q20 -12 32 -12h4l24 4q33 -4 88 -44q19 0 24 -40l-84 -364q-9 -15 -16 -48
q8 -4 12 -4q296 28 296 48q0 4 4 12q-4 22 -4 32q28 21 28 64l-4 16q20 14 20 44h-4l76 200q6 0 20 52q26 10 52 136l-16 20q0 8 48 12zM4 692h8q8 -1 8 -8h-16v8zM60 168h8v-4q0 -8 -8 -8v12zM60 140v-4q-6 -16 -12 -16v8q0 6 12 12zM36 92h8v-4q0 -4 -16 -56l4 -20
q-8 -13 -8 -24q-20 0 -24 16q18 21 36 88z" />
    <glyph glyph-name="I" unicode="I" horiz-adv-x="657" 
d="M623 1300h9q194 0 194 -92q-23 -32 -202 -51q-53 -24 -132 -36l42 85v-92q0 -23 -87 -523l4 -9q-66 -345 -95 -474l-80 40h84q30 0 30 33q50 -32 160 -37q25 4 73 4q27 -6 43 -44q0 -57 -126 -88h-35l-187 -14q0 -53 -78 -110q-25 -12 -47 -12q-37 7 -63 51q-51 27 84 27
l-106 -47q-45 8 -126 58q0 15 -12 48v39h37l20 -4q9 0 106 50q73 22 73 13l-11 53q27 0 47 144q40 0 21 -56q-21 37 -21 63q9 14 15 45q-3 5 -3 31l8 12v15q0 15 12 53v42q38 46 38 -148l-41 203h45l-30 -2q0 1 -6 12q15 51 41 203l-3 6v23q13 22 48 292h85
q-124 -58 -167 -58q-52 0 -114 62v10h-4v72l61 -7q251 110 396 115z" />
    <glyph glyph-name="J" unicode="J" horiz-adv-x="493" 
d="M543 1286l22 -2q72 -6 95 -97q-27 2 -50 -24q-60 -16 -131 -25q-9 -1 -9 0l-2 -22q-14 -169 -134 -708q-26 2 -13 158q14 -127 28 -128l-45 -158l6 -1l-91 -232q-17 -14 -52 -90q-7 1 -31 -38q-115 -162 -179 -157q0 -2 -77 -5q-128 38 -126 72q-5 1 -10 41
q-21 1 -32 113l44 -4q11 -15 7 -62l-41 3l66 36q36 -54 61 -56q6 -22 10 -23q39 -3 112 78q29 38 90 140q0 1 1 17q51 77 108 263l-2 25q15 24 21 47q-2 4 0 26l8 11l-2 22q7 22 40 20l-15 36l-7 -9q0 -2 -26 0l34 47l4 50l4 5l-3 7l16 22l1 13l-2 26q10 21 9 12l-25 2
q36 45 41 76l-21 2q31 43 38 68l-6 14q33 168 37 220l30 -3q-3 14 99 6l-237 -39q-22 1 -117 54l2 21l3 16q-5 13 -2 43q24 12 62 14l12 -8q338 68 377 65z" />
    <glyph glyph-name="K" unicode="K" horiz-adv-x="833" 
d="M253 1327q7 -4 16 -4l20 4q116 -31 116 -112q0 -2 4 -16l-40 -200q0 -4 -4 -4l4 -28v-16l-12 -40v-72h12q12 3 48 44q29 0 56 56q85 68 92 104q16 0 72 124l44 92q4 0 4 4q83 -21 116 -88q0 -24 -196 -280q-52 -60 -88 -76q-1 -15 -104 -88v-4q128 -84 216 -316
q24 -37 84 -200q8 -5 76 -180q16 -9 68 -172q-4 -48 -4 -72q4 -8 4 -12q-9 0 -40 -40h-32l-28 20v8q8 10 8 12q-18 60 -92 188l4 24q-40 33 -64 112q4 0 4 4q-15 0 -24 52q8 0 8 8q-8 12 -8 32l-20 -4l-28 68v8q16 -8 16 -24h4v8q-4 24 -12 24l-12 -8q-12 34 -12 36q8 0 8 8
v4q-8 9 -8 24h-8l4 -20h-8q0 7 -8 24q12 0 12 8v4q0 8 -8 8v-8h-8l-4 20v4l8 -4v4l-24 64h-8l-8 -4v12l8 -4v12q0 8 -8 8h-12q-50 111 -128 196h-8q-20 -102 -80 -348h4q-52 -190 -80 -272q0 -17 -40 -44q-4 0 -12 4l-48 -4q-27 0 -36 48q-17 0 -24 16v16q0 10 36 24
q11 95 28 136q0 27 16 56l-4 16q8 88 32 88v4q0 6 -12 12l12 24l-4 8q28 65 36 148q8 37 20 52l-4 20q11 27 20 96q15 0 28 148q0 33 36 308v16h-4l-12 -8h-4q0 15 -12 52l4 24q-4 7 -4 20h24q9 0 16 4zM661 1267v-8h-8q1 8 8 8zM477 423h4v-8h-4v8zM481 415h8q0 -8 -8 -8v8
zM621 107q4 -28 12 -28v8l-4 20h-8z" />
    <glyph glyph-name="L" unicode="L" horiz-adv-x="766" 
d="M326 1267l85 -28q9 -24 44 -41l8 -32q0 -66 -48 -175l-41 -166l4 -8q-20 -63 -20 -69l4 -8q-16 -47 -28 -126q-17 0 -49 -178q-69 -240 -69 -284h4q76 57 89 57h13q16 19 16 24l20 -4v16h4q9 0 16 -4q33 9 33 29h4l12 -9q56 29 207 49q8 -4 12 -4q18 0 113 32
q37 -8 37 -16q-4 -7 -4 -16q6 0 12 -12q-66 -69 -97 -69q-217 -50 -341 -162q-124 -123 -158 -175q-25 -32 -57 -32q-88 0 -150 49q15 26 37 174q0 4 -4 4q11 17 28 114q8 0 16 28q0 4 -4 12q19 89 45 154l-4 8q8 36 20 49q-4 8 -4 12q10 0 24 77q0 15 37 89q0 27 4 41
q-4 8 -4 12q12 28 24 77h-4q4 20 16 20v4q0 6 -12 13q24 103 45 158q4 78 32 174q9 0 12 61v8q0 22 -16 28l4 17l-4 20q9 4 37 8zM-11 -75q8 -1 8 -8v-16h-12v4z" />
    <glyph glyph-name="M" unicode="M" horiz-adv-x="1142" 
d="M1105 1372q43 -4 138 -38q30 -33 33 -54q11 -64 -12 -226q-15 -17 -51 -135q-6 -41 -20 -74q-2 -85 -30 -141q7 -36 -34 -96q-10 -72 -22 -112q2 -12 -14 -37q-12 -11 -12 -79l-18 -39l1 -5q-1 7 14 9q-30 -54 -33 -97q-17 -34 -32 -96q-1 0 -2 7l12 -35q-16 -3 -27 -108
q-10 -2 -17 -80q-5 -96 -16 -173q-5 -101 -28 -104q5 -29 -50 -61q-17 5 -19 5q-8 -5 -21 -7q-15 27 -28 24l-3 18q8 10 6 37q-8 18 -12 44l14 15l-3 18l-14 46q10 1 10 -2l-1 7l-13 45q9 2 10 -1l-2 7q-1 6 -9 14q18 31 17 39l-1 3l-10 25q10 5 19 41q-3 0 -7 21
q30 41 28 53q-8 -1 -12 20q15 15 14 18l-7 15q2 16 -2 40q13 2 23 74l13 2h-1q0 35 36 164q-2 9 13 34l-5 6q14 28 13 29l-7 8q8 28 24 34q10 -3 2 -4l1 -9l-14 18q17 3 18 6l-8 24q41 94 65 222q8 2 11 72q7 1 28 102q19 104 47 206q-4 44 4 92l1 -4q-18 -3 -157 -197
q-31 -59 -95 -222q-50 -78 -62 -142q-41 -81 -123 -305q-47 -120 -69 -123q-14 -10 -34 -13l-25 -5l-24 -30l-33 -1l-22 -4q-2 15 -47 38q46 15 39 57q8 58 19 77l14 -3q-2 -1 0 3l-2 9l16 3q2 -15 -20 -18l-14 -3q-11 63 26 69l2 -9l-8 -1l-3 15l7 45l2 -4l-2 15
q25 31 23 62l-6 31q24 4 29 80q13 25 48 243q5 1 5 2q-5 4 -10 30q12 2 17 43q-4 5 -8 25q12 2 13 0v-3l11 2q-35 -62 -129 -275l-151 -370q3 -19 -34 -83q-58 -142 -72 -159q-4 -109 -25 -112q-31 -16 -50 -19q-84 -5 -90 33l1 13q-6 13 -5 7l-3 -3l-17 -3q-11 61 27 75
q16 88 21 189q7 2 19 23l1 -4l-29 24q20 4 21 -2q-5 6 -7 19l7 6v1l-2 8q14 65 9 91l9 1l-8 15q9 76 27 160q-4 0 -7 17l-3 20q14 3 15 28l-17 21q21 8 19 18q1 -3 -7 -4q-7 38 14 55l-7 19q2 43 44 285q2 5 1 11q-17 2 -19 15l-1 7q6 10 4 23q129 4 132 -16q8 1 33 -41
q-20 -105 -15 -130l-23 -149q-6 -1 -7 4l10 2q-14 -54 -20 -160q-4 -23 -5 -145q-8 -1 -5 -35l-1 3l-11 -2q96 279 186 445q-1 6 34 78q42 89 90 164q53 68 68 103q12 2 12 0l-17 15l20 14q14 2 20 -6l21 12q46 8 105 -45q-15 -115 -36 -207q-7 -1 -16 -64q-11 -15 -27 -123
v-3l-10 -2q15 22 76 171q169 328 325 354zM156 1095l28 5l2 -13q3 -17 -24 -22zM710 824l-1 9l-16 -2q1 -4 -2 -10zM1022 647v3l-12 -2l1 -7q12 3 11 6zM999 562l-1 6l-11 -2l2 -10q11 3 10 6z" />
    <glyph glyph-name="N" unicode="N" horiz-adv-x="807" 
d="M717 1307h34q133 -37 133 -85l20 -70q-36 -257 -69 -333l-75 -282l-75 -230q3 -6 3 -17q-23 -22 -45 -129q-24 -36 -85 -262q-5 -1 -23 -98q-20 -28 -45 -140q-9 0 -31 -31q-26 0 -59 -11q-9 0 -15 3q-1 0 -1 -16l-39 27l6 13l-3 18q8 26 8 31l-4 9q22 116 27 125
q-3 11 -3 16l20 45l-6 28q10 0 10 -2v7q0 -6 -14 -6q27 36 38 105l105 316q15 16 19 16v-8h-8q0 39 47 154q1 0 1 9l20 -9h-4v1q0 -2 -12 -2q0 26 10 38q-2 3 -2 20q15 8 12 8v3q32 102 32 99h-7q43 147 73 280q2 0 2 -7l-5 18q17 29 29 91q-2 12 -15 12l11 20v25q8 56 8 57
q-2 32 -6 32h-4q-32 0 -177 -150q-83 -66 -111 -122q-63 -56 -149 -279q-5 0 -26 -62q-40 -98 -71 -213q-16 -73 -29 -73q-3 -46 -3 -51l4 -35l-4 -15q4 -25 4 -42q0 -69 -39 -90q-35 0 -82 -4q-47 31 -47 60q0 16 10 28l-11 25l5 10v9q0 -6 -11 -6l11 20v32q0 6 -5 15
q5 11 9 56l-5 8l13 58q-1 2 -11 2q11 44 11 66l-4 18l7 21l-3 7q4 24 4 22h-11q11 20 11 21l-4 27q4 34 5 34l-1 4q0 11 4 31q-4 20 -4 41l7 3l-3 13q0 28 4 47q-4 20 -4 30q0 4 3 21q-7 12 -7 25v58q0 6 -6 15q6 9 6 15v31q0 -6 -11 -6l11 20v12q-13 60 -36 78l54 13
q23 -4 34 -4l9 5q95 -22 95 -84q0 -9 10 -9l-6 -30q1 -12 13 -12q-13 -30 -13 -44q0 -2 4 -24q-8 -29 -8 -37l4 -28l-7 -29l7 -15q-4 -28 -4 -37l-6 3q13 19 87 186q48 88 137 186q11 0 23 30q192 195 300 207zM648 518v8h-16v-8h16zM600 445v13h-6q-2 0 -2 -13h8z" />
    <glyph glyph-name="O" unicode="O" horiz-adv-x="891" 
d="M507 1320q104 -56 121 -57q84 -106 88 -130q39 -3 59 -120q4 -3 22 -42l-6 -22q32 -30 45 -177q27 -35 18 -166q-2 -40 -14 -66q5 -8 4 -18q0 -4 -12 -35l3 -23q-31 -122 -136 -330q-113 -197 -233 -239q-44 -20 -111 -15l-33 2q-10 0 -20 -3q-231 53 -229 95
q-27 9 -70 98q-4 0 -13 14q11 28 11 35l-8 1l-11 -4l-4 9q7 0 16 13q1 20 -20 68l4 62q15 65 24 75v8q-8 12 -8 14q5 31 11 31l-4 9q21 95 38 140q1 5 -5 5q26 90 41 105l1 9q0 4 -5 4q7 27 12 26q0 5 -5 5q19 79 33 78q1 5 -3 14q11 53 22 52l-4 9l1 13q58 156 144 290
q18 14 54 90l1 14q-15 1 -14 5q1 22 87 21q108 -7 120 -79l-1 -5q-83 -43 -108 -122l-83 -160q-49 -106 -95 -288q-15 -32 -36 -118q4 -9 3 -14q-26 -47 -36 -105h6l-6 -8l-7 -112q-11 -30 -12 -35l-1 -17q12 -12 14 -86q32 -121 95 -158l28 -2q98 -6 176 123q8 0 64 80
q13 8 76 143q73 166 78 231l-26 -16l1 9q0 9 16 34q3 34 8 49q3 43 -7 250q-40 224 -63 281q-52 80 -107 123l6 22q-5 1 -4 5q9 -1 9 8zM473 1318l10 -1v-4l-10 1v4zM642 508h4l-1 -18q-1 -9 -10 -8q1 4 -5 5q11 13 12 21z" />
    <glyph glyph-name="P" unicode="P" horiz-adv-x="752" 
d="M551 1410q104 0 302 -103q70 -64 90 -94q36 -67 54 -157l-5 -22q12 -32 15 -32q-36 -121 -119 -269q-6 -41 -154 -179q-12 -31 -154 -116q-131 -108 -213 -108q0 -9 -104 -22q-5 -37 -10 -45q0 -4 5 -4q-40 -252 -84 -341l-40 -27q-10 5 -15 5q-45 -9 -64 -9h-5
q-8 0 -15 13v22q-20 0 -35 23l15 31l20 -9q10 93 25 126q-5 23 -5 27q14 64 19 76q-5 8 -5 18q10 0 35 174l5 41q-5 0 -5 4q7 1 20 23v44l-5 9q15 5 15 9l-5 18q10 23 15 23l-5 9v4q0 20 10 36l-5 9q6 40 15 40l-5 9q7 90 20 90l-5 9v18q16 22 20 22l-5 9v5q1 9 9 9l-4 22
v22l14 18v5l-5 31l10 5l-5 22q0 31 20 130q-107 0 -124 72h5q45 0 65 44l74 90v5q-10 0 -10 8v14h45q189 87 273 94zM397 1074l10 -18q-10 -37 -15 -72l5 -9q-50 -151 -50 -183v-9q-10 0 -10 -5l5 -31q-20 -37 -20 -40q0 -5 5 -5q-10 -68 -14 -81q0 -4 4 -4l-19 -99l5 -9
q-19 -50 -25 -103h10q108 64 139 90q10 0 74 54q8 0 40 40l59 49h5l-5 9v5q110 130 114 130l85 170q0 13 10 45l-10 13l10 67q-29 224 -149 224h-35q-203 -43 -203 -89q0 -13 -25 -139z" />
    <glyph glyph-name="Q" unicode="Q" horiz-adv-x="1061" 
d="M400 1306h52v-48h-24q-28 0 -28 48zM480 1302q22 0 92 -32v0q19 0 94 4q120 -41 258 -196q80 -109 80 -352v-18q-4 -21 -4 -20q4 -15 4 -42q-12 -24 -12 -34l4 -18q-20 -100 -32 -117q4 -6 4 -27q-42 -110 -72 -156q-31 -41 -80 -132q-60 -51 -100 -105v54
q19 -14 186 -67q24 -20 194 -76q66 -36 72 -72q0 -25 -56 -46q-26 0 -186 50q-167 58 -252 70q-60 4 -102 4q-106 -44 -204 -44q0 5 -60 8q-34 -3 -140 -60q0 -17 -58 -28q-40 2 -102 52l-8 16q0 15 11 39q40 -27 -19 -27v64h34l10 -8q68 47 72 54q0 -4 -52 10v40h-5
q-4 6 -11 17q0 39 18 39l10 -20v-32q-49 0 -70 88h-10l48 -24v-107q-31 175 -4 175q0 -24 -42 -24l-6 46v16l28 42v-44h-32v28q0 13 12 22q0 7 -12 24v46h32l-20 37v-23l3 3l-13 67l30 14l19 -9l-27 -40v39h-8v48q16 0 16 -8l-14 6q34 75 34 14q-24 0 -24 44q24 0 24 -36
h-34q34 82 34 110q25 41 36 98q13 0 22 54q17 7 30 62q4 26 28 46q0 9 16 29q0 12 44 73q18 25 26 58q30 36 30 66h6l12 -12q10 37 60 102q79 75 138 78zM588 1200v57l38 -63q-59 -48 -70 -48h-8l-8 -14l-20 10v0l-26 -14l-6 26q-12 0 -174 -266q-79 -146 -86 -218
q-19 -22 -44 -144q-24 -82 -32 -220q0 -156 91 -236h-96q214 64 351 64q16 -4 24 -4q46 9 174 172q156 225 156 536v8q0 112 -76 232q-59 85 -138 108q-12 0 -50 14zM76 626v-8h4q8 0 8 8h-12zM32 134q48 -9 48 -32v-24q-48 0 -48 28v28zM44 106h48v-48q-48 0 -48 48z" />
    <glyph glyph-name="R" unicode="R" horiz-adv-x="876" 
d="M645 1311q184 -43 253 -103q73 -96 67 -152l-1 -4q-17 -154 -181 -258q-99 -68 -219 -131l3 3q60 -39 63 -85q61 -145 86 -252q6 -1 29 -86q71 -193 157 -369q-2 -16 43 -94q-14 1 -12 13l12 -1l-5 -42q21 -36 32 -37q-1 -14 -7 -26q2 -29 19 -50q-3 -22 -21 -20l-10 1
q0 -5 -38 -8q-17 2 -36 48q-124 147 -180 263q-32 66 -65 117q2 19 -67 153q1 13 -85 219q2 16 -60 138q-6 39 -28 42l-91 -32q-17 -32 -84 -307q-28 -66 -59 -203q-25 -57 -47 -55l-77 -7l-15 2q3 32 -31 50l6 57l16 -2q19 -9 17 -26l-14 2q30 102 38 174l2 14q19 43 18 43
v9q0 5 10 24l-2 17q5 9 5 8q-3 8 -2 21q16 6 13 6l1 9l-3 32q11 -1 10 -2q-6 14 -4 33q10 -1 16 19q-6 0 -3 21q14 19 15 26l-11 29q16 -2 18 7l-15 45l2 16q40 -4 45 42q15 59 15 64l-6 1q21 57 44 160q-3 8 -1 24q10 -1 13 9l-1 28l6 22l-4 11q8 8 13 32l12 -8q0 -2 -18 0
l-14 2q2 20 -3 30q7 9 8 16v-2l7 -1l-32 -3l4 32q1 12 21 20l9 -1l-4 3q0 -3 32 11q7 15 17 64q0 2 -14 21l5 42l11 18q14 -9 15 -9l53 2q50 -9 48 -9q137 81 241 70zM411 1036q0 -1 3 -10q-44 -200 -63 -243q3 -7 2 -14q-17 -78 -22 -90q4 -1 4 1q70 29 192 102
q245 171 258 286l2 22q-13 81 -44 85q-27 27 -61 31q-130 -10 -242 -95q-8 -7 -29 -75z" />
    <glyph glyph-name="S" unicode="S" horiz-adv-x="849" 
d="M665 1283l6 -1q149 -46 140 -123l-1 -8q-4 -29 -39 -25q-4 1 -52 10q-58 -21 -171 -224q-1 -12 -19 -84q-6 -44 133 -226q127 -217 117 -364q-43 -155 -69 -152q-123 -144 -360 -192q-51 -8 -100 -2l-31 4q-164 20 -232 143q-15 1 -25 53q-12 2 -12 62q11 14 11 12
q-12 16 -9 38l3 25l63 -8l-85 -28q4 33 -10 70l29 -4l-12 31l-4 -37q3 29 43 24l-6 -50l-26 47l2 15q2 13 55 47l-7 -57q-26 40 -25 50l4 38l39 -25l-34 -48l8 68l67 18l12 -33l-1 -11l-27 -78q-2 8 14 6l-15 -43v-2q-5 -39 16 -73q29 -128 119 -139q178 -21 382 173
q50 67 56 118q18 148 -122 348q-119 170 -109 256l2 14q44 162 180 300q43 32 61 30l-6 -55l-31 58q53 37 78 34zM51 391l-3 -25q-4 -29 -57 -23l4 27q8 27 56 21zM-63 227l53 -6l-6 -51l-53 7z" />
    <glyph glyph-name="T" unicode="T" horiz-adv-x="555" 
d="M892 1348q38 0 66 -34v-15q-41 -58 -148 -77q0 -10 -70 -10h-52q-34 0 -101 -4q-57 -136 -157 -625q-15 -42 -32 -127q-52 -215 -84 -320q-22 -104 -44 -104v2q0 6 9 6q-21 -50 -21 -64h10q-34 -72 -49 -72q-7 -4 -23 -4q-34 0 -38 50v12q0 14 -2 14l2 -4v20h32
q0 -22 -2 -26q2 -4 2 0l-15 -8l-1 2q12 183 23 202l-3 6q21 136 30 136l2 -4v42q0 14 4 14q0 -16 -7 -16q27 94 40 176h-3l1 -3q45 179 45 192l-6 31q6 0 6 -16h-6q9 48 19 57q-1 2 -1 11l7 14q-3 4 -3 20q16 16 16 18q-4 7 -4 24q8 0 8 -2v4q0 -6 -10 -6l13 26q-3 5 -3 22
q18 0 23 48h-6q12 50 23 62v8q0 -6 -8 -6q44 118 44 159q-6 9 -17 9q-152 -20 -252 -52q-143 31 -143 72q-2 0 -16 24q3 20 18 20h36q12 0 18 -3q326 71 398 71q88 -4 156 -4h88q44 0 62 8q16 0 16 -2l9 2h7l-4 2q0 4 84 17q0 5 14 5z" />
    <glyph glyph-name="U" unicode="U" horiz-adv-x="1071" 
d="M391 1315l15 -7h2q77 0 117 -37q31 -6 31 -49q0 -27 -34 -98q0 -25 -70 -180q0 -9 -13 -22v0q0 6 10 6q-101 -225 -101 -241q-47 -76 -109 -273q-15 -22 -38 -118h8q-31 -53 -32 -88l5 -9q-17 -63 -17 -99h-11q64 72 183 267q64 92 63 92v-1q63 103 91 130q19 45 154 216
q84 108 132 266q22 45 39 98q9 0 14 54v-2q3 0 -16 10l7 13l-5 27l55 10l66 -29q51 -33 51 -63q-188 -503 -251 -744h5l-19 -69q3 -5 3 -19q-12 -31 -12 -50q0 -2 4 -11q-5 -27 -6 -27l2 -6l-5 -24q12 -150 57 -150h4q31 0 204 208q56 64 56 76h33v-21l4 -27
q-24 -45 -50 -77v-5q0 -6 4 -13q0 -13 -19 -27l3 -14q-75 -122 -75 -129q-51 -71 -110 -71q-98 0 -166 48q-19 0 -63 60q-52 72 -52 181q8 14 8 27l-9 18l9 18l-4 25q0 14 12 31l-6 28q18 0 31 67q0 -3 7 -3q-9 -7 -95 -155q-98 -139 -137 -256q-31 -30 -47 -53
q-44 -64 -146 -64q-164 19 -164 100q-1 0 -9 23q14 28 14 43v4q0 -6 -11 -6q19 37 19 44q-4 7 -4 18q11 13 37 150q26 80 62 164v4l-4 8q0 12 43 90q29 59 46 125q18 19 67 146q11 6 59 139q6 0 6 1l-7 31q23 0 36 90q28 38 40 138q-1 0 -12 22zM585 98q29 -5 29 -30h-29v30
z" />
    <glyph glyph-name="V" unicode="V" horiz-adv-x="701" 
d="M1032 1630h14q0 -11 14 -24v-4q0 -16 -28 -40v-12q0 -14 4 -36q0 -10 -33 -64q0 -12 -33 -44q0 -28 -47 -72q-18 -53 -75 -108q0 -6 -33 -24q0 -11 -33 -64q0 -15 -28 -40l-43 -92l-132 -280q-56 -149 -80 -236h5q-14 -27 -33 -104h5l-43 -136q0 -7 -9 -20q0 -4 5 -12
q0 -2 -29 -104q-33 -115 -56 -156q-21 -108 -85 -108h-47q-5 0 -38 8q0 -8 -9 -8h-10q0 20 -9 20l5 8v8l-29 4v12l5 8l10 -4h4q10 0 10 8q-5 22 -5 32v8h5v-12h14q0 31 -38 160l5 16q-10 29 -33 148l5 8q-9 12 -14 72h4q0 4 -4 4q4 14 4 16l-9 28h5l-5 8v16l9 12q-9 0 -9 8
q9 0 9 12l-9 16v20q-7 0 -14 12v12q9 16 14 16q-14 38 -14 44l14 20v12l-14 16l14 16v4q-14 16 -14 24l4 8l-9 20q7 0 14 12v4q0 5 -9 44q0 4 4 4l-4 8v12q0 4 4 4q-14 14 -14 124q5 35 5 40h-5l5 8q-13 179 -24 200q-29 0 -42 44v20q0 8 42 12q69 0 142 -56q26 0 37 -160
l-4 -8q6 -67 9 -72q-5 -7 -5 -16v-12q10 -16 15 -16l-5 -20v-20q1 -20 9 -20q-9 -13 -9 -24v-56q0 -17 5 -44q0 -4 -5 -4q5 -41 5 -64q0 -64 4 -212h-4q8 0 14 -104h14l56 240q11 0 29 84q47 127 56 140h5q0 4 -5 12q64 146 113 196v12l10 4l-5 20v4q33 0 33 28q12 0 19 44
l-10 -4l-4 8v8q0 6 37 24l5 8q-9 0 -9 8v4q14 0 14 16h-5q26 49 90 128q28 0 42 48q51 40 85 92q128 127 212 188zM132 2h5l4 -16v-4h-4l-5 16v4zM137 -30h9q0 -4 5 -12l-10 -4q0 9 -4 16z" />
    <glyph glyph-name="W" unicode="W" horiz-adv-x="1191" 
d="M998 1470q23 0 45 -32l19 13q0 -60 40 -81q0 -20 40 -104q0 -36 5 -50q-8 -22 -6 -22l5 -21q0 -15 -3 -15l11 -82l-4 -20q4 -35 4 -44q-4 -74 -12 -90q0 8 5 8q-5 -63 -29 -228l5 -9q-25 -78 -30 -163q-3 0 -3 7l4 -16q-12 -120 -36 -190l4 -22v-10l-65 -266
q-77 -171 -139 -171q0 -6 -71 -12q-21 4 -22 4l-16 -4q-109 14 -159 46q-34 28 -51 54h-9v24l3 6l-26 47q-11 23 -31 95q-6 0 -6 14v12q0 50 -10 50l10 50q-3 26 -14 26l10 20v16h11q-13 -14 -29 -21q-58 -172 -137 -256q-49 -47 -95 -47h-52q-47 0 -89 27l-5 -3h-9
q-71 51 -71 132l4 8v38q0 29 44 201q0 31 28 78v9q0 -6 -7 -6q27 105 79 260q0 26 40 120q0 -8 -12 -8q20 33 20 37l-6 35q15 0 42 60v32q29 64 32 104q15 8 12 8v2q0 -6 -9 -6q29 71 29 78v-2q-16 0 -16 18v18h25l26 4q81 -25 105 -72v-17q-41 -72 -157 -465
q-24 -47 -71 -238l-48 -223q0 -1 4 -9q-4 -25 -4 -38v-4q0 -13 4 -37l-3 -8q7 -27 7 -29h-2q137 114 366 779q-1 5 -11 5q20 76 37 76h-6v-9l-8 12v17h22q10 0 27 -21l3 1h20q0 -22 -4 -28q8 -44 39 -44l25 -35v-19q0 -23 -24 -109q0 7 7 7l-15 -63v-23q0 -34 -13 -78h3
q-14 -65 -26 -206q4 -83 4 -134l5 -10q-5 -10 -5 -15q13 -105 47 -165q15 -46 74 -90h5q36 0 91 94q63 188 97 358q22 0 22 40q8 0 8 -2v40q0 -6 -7 -6q10 40 13 40l-8 56h14v10q0 18 12 18v1l-3 19h15v-8h-28q0 23 32 62v0q-8 10 -8 16v4q0 8 9 15q-1 2 -1 15q15 8 12 8
v-10l-9 2l-19 -10v20q0 15 18 37q-2 4 -2 11q0 14 24 26v-4l-4 8q4 35 7 41q-3 5 -3 17v7l12 16v19q-2 0 -14 17l4 8q-6 7 -6 13v14q12 0 12 -2v-2q-16 0 -16 32q10 0 12 4v19q-12 15 -12 27q0 9 7 24q-3 5 -3 20q11 2 24 26q-8 49 -8 76q16 0 16 -2v4q0 -2 -20 -2v22
q8 10 8 6l-9 18l9 17l-19 11l7 13q-1 5 -11 5l7 27q-8 78 -12 83q0 18 3 18l-8 72q5 0 5 4zM1082 1226v12h-12v-12h12zM1000 926h22v-30q0 -18 -18 -18h-17zM1050 802v0v4h-6q-2 0 -2 -2t8 -2zM990 814h32v-14q0 -18 -18 -18h-14v32zM1042 754v12h-12v-12h12zM1014 750v12
h-6q-2 0 -2 -12h8zM954 462v-40h-35q10 40 35 40zM926 298q0 3 0 2l-4 2h-8v-2q0 -2 12 -2z" />
    <glyph glyph-name="X" unicode="X" horiz-adv-x="1038" 
d="M322 1460q42 0 88 -63q0 -24 64 -161q0 -5 16 -56q-8 0 -8 16q15 0 48 -101l-2 -11q16 0 61 -125q21 -32 21 -49v-6q15 -8 50 -103l1 -1l89 133q0 10 48 88q0 9 33 50q30 86 95 217q18 0 49 12q18 -4 27 -4l8 4q56 -7 56 -42v-2q-3 0 -8 2v5q20 -11 36 -11v-42l-26 5
q-15 -21 -52 -151q-5 0 -57 -106q-25 -10 -25 -36q0 -18 -30 -50l-29 -47l3 -5v-12q-27 -13 -73 -80q-5 0 -7 -18l-56 -79q0 -6 8 -55q-4 -8 -4 -7q23 -9 50 -105q6 0 6 -15l-2 -9q17 0 45 -123q16 -32 112 -336q23 -65 27 -65q46 -1 46 -22q0 -19 -56 -25q0 -9 -33 -9
q-27 18 -27 14l-10 -2q-110 32 -110 100q-13 35 -39 74q-28 99 -100 281q-32 96 -56 133h5q-34 -30 -45 -51l-33 -8q0 7 16 7q0 -15 -100 -95q0 -9 -44 -33q0 -13 -28 -30q-47 -52 -128 -100q-78 -62 -148 -102v8q12 0 12 -24l-28 -14q0 17 -4 18q-7 -4 -4 -4v-10
q0 -12 -27 -28l-18 14h-35v18q8 10 8 5l-9 14q15 34 40 60q12 12 22 46q44 55 63 62q0 8 88 82q0 4 254 245q10 0 63 68q6 0 11 9v9q0 15 -95 232l-76 168q-20 55 -37 86l2 16q-14 0 -74 249q0 71 72 71v12zM1086 1224l9 -18q-5 -10 -5 -26h-14q-18 0 -18 20q9 24 28 24z
" />
    <glyph glyph-name="Y" unicode="Y" horiz-adv-x="777" 
d="M130 1304h30q14 0 14 2l-4 -2h47q121 -31 121 -79q-132 -433 -132 -468q-28 -134 -28 -235v-4q0 -86 50 -162q13 -12 24 -12h8q9 0 42 22q53 44 142 193q83 129 114 197q0 15 24 42q0 21 15 52l-3 6q4 54 16 69q0 -1 -4 8q8 42 8 73v42q12 38 12 108q-2 0 -25 50
q5 10 5 22h14q15 0 32 4q127 -21 138 -93v-17q0 -104 -24 -221v-3q1 -10 11 -10l-22 -93q3 -6 3 -15q-8 -23 -30 -136h6q-16 -50 -36 -152l-53 -178q-6 -9 -28 -84q-40 -75 -41 -76l2 -11v-7q-91 -182 -101 -217t-42 -112q-30 -50 -63 -65q-17 -73 -147 -126q-8 0 -36 -27
q-72 -25 -101 -49q-8 0 -37 13t-3 55.5t104 91.5q44 84 87 127q11 57 35 57q0 -16 -10 -16q44 92 56 92q4 0 15 34l22 34q1 0 1 20l88 172v38q15 17 22.5 31t-44.5 -16q-63 -25 -84 -25h-69q-151 29 -195 88q-37 41 -41 64q-10 0 -34 75q5 9 5 5q-6 0 -17 63q15 9 17 9v56
q-12 0 -12 31q6 53 36 53v-15q-4 -35 -4 -33h-12v6q0 12 2 16q-2 4 -2 26q4 0 4 -12l-17 8q7 64 33 64q8 -14 8 -16q-12 0 -9 6q-3 5 -3 2h8l-20 -10v29q20 81 40 81l8 -17l-4 -22v7h-13l9 23l-4 18q0 8 16 28v1q-8 10 -8 16v14q16 0 16 -1l-8 12v17h4v20q9 0 19 18l-3 6
q6 36 24 36l-4 2v-14h-8v18q0 9 24 74h-4l51 156zM578 868h28q0 -28 -28 -28v28zM-6 592h24q0 -12 10 -32h-4l-2 4v-6q0 -18 -24 -18l-14 28q10 0 10 -16h-12q12 19 12 40z" />
    <glyph glyph-name="Z" unicode="Z" horiz-adv-x="1091" 
d="M1117 1308q15 -10 84 -10l-77 -62v42q27 0 60 21q20 -41 20 -73q-26 0 -70 -28q-13 0 -17 -7q7 -8 7 -29v-8q0 -37 -95 -103l-190 -218l-187 -239q-194 -261 -412 -575v48q224 79 292 79h52q39 0 307 -44l23 -3q4 11 45 11l45 -34q0 -32 -48 -68q0 -18 -113 -26
q-55 8 -215 16q-121 0 -325 -83q-103 -34 -209 -139q-96 23 -123 70l3 20q4 0 -23 52q68 0 87 44l73 150q389 566 606 823l179 214v-43h-28v44q23 0 34 7q22 -43 22 -15h-16q-61 0 -101 4q-123 0 -319 -74q0 -2 -89 -49l-99 60q0 45 40 71v-40q-40 0 -40 28t33 28l20 -3
q82 77 252 107l154 16v0q13 -20 13 16l33 -16h78q37 -12 104 -15q6 15 41 15h11l16 -12q34 0 62 30z" />
    <glyph glyph-name="bracketleft" unicode="[" horiz-adv-x="458" 
d="M386 1437q5 -4 29 -6q0 2 23 2q0 -21 8 -32l-4 -15q3 -6 3 -16q-90 -75 -226 -75q-12 0 -24 -98l3 -17l-17 -134q3 -7 3 -12q0 -14 -2 -14l2 -14v-39q0 -17 -3 -34q6 -40 6 -62l-3 -6l3 -19v-7q0 -11 -1 -14q15 -27 15 -39v-38q-7 -9 -7 -7q11 -17 11 -55v-21
q0 -28 1 -28l10 -17h-5l-3 5v-23q-7 -9 -7 -8q7 -11 7 -23v-37q-10 -32 -10 -58l5 -10q-5 -8 -5 -14v-17q0 7 10 7q-10 -20 -13 -48l3 -15q-4 -15 -4 -24q0 -1 5 -10q-8 -17 -8 -39v-3q0 6 5 6q-16 -119 -40 -163q-4 -29 -23 -59q-5 3 -4 3q19 0 125 26q31 -36 31 -51
q-15 -51 -42 -51q-35 -24 -88 -24l-12 3l-35 -3q-21 0 -45 9q-4 -2 -19 -2q-19 24 -19 18l5 3h-17l-3 12l-20 -4v19q0 31 33 31q7 -3 -1 -3q5 52 4 52l2 -6q0 18 7 73q0 -7 -4 -7l11 143q0 -7 -4 -7l7 80q-3 6 -3 17l3 29l-3 7l4 23l-4 23q0 7 3 14q-6 84 -6 148l-5 10l5 9
q-4 42 -4 71v17q0 5 -5 14l5 9l-7 122q4 7 4 9l-4 7q0 8 4 15q-4 32 -4 50q0 113 34 323q-23 19 -39 19l9 46v15q35 18 84 21l48 -10zM38 1388v-27h-28q3 27 28 27zM66 707v13h-17v-13h17zM76 383v13h-16v-13h16z" />
    <glyph glyph-name="backslash" unicode="\" horiz-adv-x="691" 
d="M-24 1484h4q20 0 70 5q0 -50 31 -55q-7 -24 -7 -56l-28 14h8v8q15 -45 103 -201q62 -126 76 -144q108 -231 161 -368l-3 -13q27 -23 51 -98h-16q0 -2 4 -8q-8 0 -8 12h14q17 0 26 -49v-21l-20 10h10q6 -32 12 -32h30q0 -16 11 -36h-23q0 11 28 -13v-23q-12 0 -12 12h-4
l14 7l68 -131q-22 0 -22 8q28 -14 28 -24l147 -277q57 -83 57 -123q-4 0 -4 -2q-28 -7 -28 -20q-88 14 -88 26q1 0 -30 28q-20 0 -88 121q-62 85 -62 109q-22 21 -67 127q-27 40 -60 109q-66 144 -137 273q0 29 -35 86q-68 157 -75 162q-63 137 -157 302q-66 131 -97 174v7
q0 54 99 110h15zM818 -72h-28v32h28v-32z" />
    <glyph glyph-name="bracketright" unicode="]" horiz-adv-x="492" 
d="M283 1420l7 -4h5q26 0 60 -3l7 3q24 0 56 -33q23 0 67 -58q-5 -10 -5 -11q0 -83 -11 -123h4q-13 -43 -13 -46q0 -1 3 -20q-7 -24 -26 -212q0 8 5 8l-5 -34v-33q0 -17 -3 -46h10q-11 -19 -17 -64l4 -7q-4 -17 -14 -119q3 -6 3 -12q-10 -56 -30 -278l-46 -220
q-16 -30 -10 -30q-3 6 -3 -1l-3 -20q3 -5 3 -21q-47 -26 -148 -44q-14 0 -14 2l-12 -2q-117 0 -117 27v-1h-6q-17 0 -17 17v17q12 0 36 19q30 0 30 13l19 -9h7q95 14 135 29q-6 33 -6 94l4 20q0 -8 -4 -8q17 220 26 297h-5q9 48 21 179h-10q14 22 31 295l-3 7q20 154 48 316
q-2 0 -2 -6q-12 -9 -75 -24h-11q-37 0 -133 49l-9 19l2 12q-4 2 -18 2v14q2 16 19 16q6 -3 0 -3q0 9 24 21q13 -8 19 -8h3zM93 1400h21q16 -2 16 -17v-13h-27q0 11 -10 30z" />
    <glyph glyph-name="asciicircum" unicode="^" 
 />
    <glyph glyph-name="underscore" unicode="_" horiz-adv-x="1024" 
d="M1055 119q0 -7 4 -7q-3 -49 -40 -68q-39 -29 -147 -64q-1 -18 -315 -42q-9 -3 -112 -1l-19 6l-56 -5q-22 6 -40 8l-15 1q-2 0 -3 -7l-31 9l-26 3q-100 7 -147 -4q-68 6 -100 92l-19 7l1 15l13 18l-2 34l21 23q21 -12 33 -29q34 1 35 14l19 -13q93 11 135 8l12 -1
q-6 1 -6 5q24 -1 24 -5l38 1l32 -3q300 -9 412 -17q32 -3 53 15q85 -7 246 7z" />
    <glyph glyph-name="grave" unicode="`" horiz-adv-x="1024" 
 />
    <glyph glyph-name="a" unicode="a" horiz-adv-x="619" 
d="M156 616q135 -7 165 -34q93 -62 97 -95q-25 -72 -24 -76q2 0 21 -20v-12q-41 -49 -67 -233q8 -72 46 -68q54 35 104 109q6 -21 1 -22q14 17 15 15v-1l-10 -1v19q12 15 12 28h23l1 -11l-7 -1q11 37 33 60q-2 3 -2 10q-4 32 64 78l48 5l9 -28l1 -5q1 -13 -1 -17q3 -4 4 -17
q-17 -130 -137 -279q-68 -29 -95 -32q-169 -19 -220 65l-4 3q-17 -8 -63 -68q-66 -55 -102 -58q-108 -11 -192 83q-1 13 -9 21q10 18 9 27v-13l4 2h-18v20q14 7 34 122q23 34 28 80q22 24 52 95q30 28 66 82l-9 12q40 20 108 128l9 2q0 -12 3 -12q-7 -4 -25 -8l-3 29
q24 2 31 16zM228 511q-163 -196 -213 -347l-15 -75l7 -63l5 -1q14 6 50 54h18l1 -6l-10 -2l119 167q22 31 22 26q-2 0 -30 30l5 1l2 -2q13 58 32 104l1 -2l-10 11l-4 17q15 2 15 -1l-11 31q19 1 29 21v3q-15 33 -13 34zM518 233h25l3 -25l-25 -5zM-132 135h25l3 -28h-25z
" />
    <glyph glyph-name="b" unicode="b" horiz-adv-x="601" 
d="M247 1070q70 0 79 -70q-80 -298 -103 -436v-23h-11q80 71 151 71q168 0 211 -166q-52 -218 -197 -363q-93 -134 -201 -204q-50 0 -109 48l-18 -4h-23q-32 0 -96 60q0 37 18 95q0 1 -6 12q6 11 6 18v24h31v-9h-13q0 3 7 28q-3 6 -3 30q12 0 23 94q8 0 8 53h-4v17
q29 143 49 143v-7q0 -2 -9 -2q0 53 54 220q12 22 28 109q19 0 59 204q-8 14 -8 42l34 -6h-7q0 18 15 18q10 0 35 4zM99 -37h-2q-3 0 -3 -3l-6 35q63 0 95 71q6 0 77 89q12 0 12 26q20 0 50 57q84 119 84 212q-4 64 -9 64q-125 -48 -246 -291q-52 -167 -52 -260z" />
    <glyph glyph-name="c" unicode="c" horiz-adv-x="390" 
d="M202 674q113 0 130 -68q2 -16 10 -16q-47 -228 -67 -228l-20 -4h-5q-46 0 -69 36q-17 0 -17 18v24q0 7 7 54h12q-90 -110 -120 -191q-91 -130 -91 -223q6 -110 42 -110q63 0 252 224q75 111 112 179q43 57 56 57h18q0 -25 9 -35l-5 -19l4 -20q-12 -45 -20 -128
q-24 -29 -49 -125q-187 -225 -317 -225h-8q-155 0 -226 156q0 11 -9 43l9 16q-4 20 -4 35q4 46 57 118q3 0 3 10q0 -6 -9 -6q30 72 63 108h18v-8h-2q-2 0 -2 -2t-12 -2v21q93 146 198 267q34 44 52 44zM360 346v-28h-29q3 28 29 28z" />
    <glyph glyph-name="d" unicode="d" horiz-adv-x="514" 
d="M459 902h8q61 0 72 -40q0 -16 -88 -348q4 -7 4 -16q-72 -291 -72 -384v-64h8q39 33 56 84q13 1 24 52q0 17 36 48q9 0 16 -40v-24h12q-57 -240 -136 -240h-4q-65 0 -128 48q-28 45 -28 92v28h-12q-40 -88 -160 -136l-24 -4h-24q-128 24 -128 60q-44 23 -44 84q0 4 4 12
l-4 8q0 122 196 368q54 46 72 88l112 40q28 4 48 4q56 -12 60 -12h8q56 194 56 248q-4 16 -4 28l12 8q13 -8 20 -8q0 10 32 16zM-25 82v-4q2 -40 20 -40q40 16 88 80q24 21 24 32q-4 8 -4 12q10 14 40 28q134 193 140 248q6 0 12 16q-4 22 -4 32q10 0 16 32h-24q0 16 -16 24
q-101 -35 -240 -272q-52 -120 -52 -188z" />
    <glyph glyph-name="e" unicode="e" horiz-adv-x="429" 
d="M194 622l9 -4l44 4q128 -23 128 -57q22 -24 22 -45v-22q0 -41 -22 -66v-4l9 -14q-73 -97 -159 -97q0 -4 -22 -9l-128 22q-22 0 -53 -132q-9 -33 -9 -62v-4q8 -14 26 -93q21 -31 27 -31h9q63 0 221 203q26 52 88 119q0 11 13 23q0 6 -13 13q0 5 49 75q46 -9 57 -35
q0 -5 -4 -14q4 -23 4 -26q0 -25 -53 -155q0 -59 -141 -207q-99 -80 -190 -80q-75 7 -181 84q-20 28 -49 110q9 34 9 62v18q9 8 13 66q0 16 27 53q0 43 35 62q7 36 44 62q0 34 75 97q44 62 58 62q20 0 57 22zM106 406v-14h35q78 0 119 133l-4 17h-13q-65 -46 -137 -136z
M371 353h13v-5q-4 0 -13 -4v9z" />
    <glyph glyph-name="f" unicode="f" horiz-adv-x="522" 
d="M334 1140q49 0 64 -44v-8q-93 -200 -168 -444h44q81 0 116 -76q12 -53 12 -72v-8q0 -26 -4 -52l4 -20q-8 -38 -8 -56l8 -4q55 53 116 136q33 44 56 44q16 -28 16 -40q-4 -21 -4 -24q4 -7 4 -16q-11 -4 -60 -116q-12 -3 -20 -40q-54 -64 -124 -96q-24 -152 -60 -284l4 -8
v-4q-16 -20 -16 -24q3 -16 8 -16q-4 -15 -24 -40l4 -8q-8 -20 -8 -32h4q-34 -81 -52 -108q-48 -76 -128 -76q0 -4 -12 -4q-136 35 -136 76q-12 4 -12 8q4 8 4 12q-7 0 -28 96l4 16l-4 20q8 26 8 32q-3 0 -12 12l4 8v24h4l12 -8v24l-8 -4v12l8 12v4q0 8 -16 8v8q16 0 16 8v12
q-12 0 -12 8v4q0 4 4 4q-4 12 -8 12q0 29 24 44v4l-16 28q12 15 12 28h4v-16q16 4 16 24v8q0 8 -8 8h-4v-8h-8v12q0 13 24 36q9 9 12 60q-7 4 -16 4v12h4q8 -4 12 -4v16l4 20q-8 0 -8 8v8q12 0 12 8q-8 10 -8 12v4q2 0 16 4v16q0 9 4 16q-4 12 -8 12q0 16 36 92v8l-8 12
q20 5 20 12l-4 20q0 14 20 36q-8 0 -8 8q7 32 16 32l-4 20v4q40 94 104 288l64 136v4q-4 8 -4 12q4 0 24 52q12 8 76 32zM218 428q6 -122 56 -140q10 24 20 208q-13 70 -32 72q-36 -13 -44 -140zM78 -108q5 -188 28 -188q21 3 72 148q28 36 84 328v24q-56 8 -128 96
q-16 0 -48 -256q-8 -63 -8 -152zM-38 220h8v-12q-8 0 -8 8v4z" />
    <glyph glyph-name="g" unicode="g" horiz-adv-x="527" 
d="M233 635q151 -9 153 -40q95 -11 100 -78q-17 -88 -24 -189q-7 -1 -15 -62l7 -23l-71 -391q-118 -336 -205 -418q-28 -33 -123 -51q-29 12 -34 12l-9 -6q-73 20 -83 41v5l27 7v9l-6 9l9 5l47 4q55 28 53 50q43 35 99 186q20 1 29 58l5 1q2 -10 10 -9q-1 8 12 24l-1 19
q-2 23 -16 22v10q23 1 22 20h-5q7 47 29 49v9q-11 11 -11 13v10l23 6l-1 10q-14 -1 -15 8q-97 -82 -107 -83q-52 -22 -106 -26q-113 26 -146 79q-16 17 -36 100q23 141 140 348q190 239 227 242q-1 19 22 20zM2 -10q8 -37 21 -36l28 2q107 113 171 237q45 87 98 214l-6 9
l-1 14q24 71 22 100l-1 14l-28 -2q-164 -134 -262 -352q-45 -148 -42 -200zM252 -25l1 -10l14 1l3 24l-1 5q-7 -1 -17 -20zM162 -342v-5l5 1q9 0 8 10v5l-5 -1q-9 -2 -8 -10z" />
    <glyph glyph-name="h" unicode="h" horiz-adv-x="713" 
d="M204 1050q23 -4 36 -4h8q-6 0 -6 9q80 -34 80 -80q-89 -304 -103 -339l3 -6q0 -9 -16 -67q0 -1 4 -9l-2 -16h-8l28 52q101 112 128 112q88 -8 151 -43q27 -50 27 -64q-28 -165 -84 -310q-44 -164 -44 -223q4 -7 4 -4h-7q112 135 167 236q8 0 118 168l55 55l3 -2
q0 -7 20 3h20q0 -21 9 -32q-38 -128 -97 -217q0 -21 -122 -242q-67 -93 -102 -93l-48 -16q-6 0 -33 4q-14 -4 -19 -4q-112 47 -112 104q-2 1 -16 28q0 22 11 37l-3 16v7q16 34 25 140q7 0 7 12h17l5 -3l-2 -5v-1l-8 12v17h12v-9l-8 13q3 20 2 20l2 -4q14 88 26 88l1 -3
q41 149 41 165v12q0 -2 7 -2q-134 -157 -224 -335q-44 -83 -79 -205q-19 -108 -82 -108q-6 0 -6 -7q-75 22 -97 52l-3 -1h-16v14q2 58 36 58q0 -4 -15 -4q4 68 23 68l6 -3q5 3 2 3v-5l-9 14q12 28 15 29l-2 7q0 75 28 75v-16l-16 13q0 31 24 31v-6q0 -2 -9 -2q14 112 35 112
h-2v-3l-4 24q0 10 24 48v-2l-8 12q0 32 14 52l-2 5v10l20 24v12q0 6 -6 16l29 46l-3 19l12 25l-4 23q88 303 88 313q-8 0 -8 22q0 35 28 40q0 11 34 18zM344 338v0h-14v0h14zM-2 312v2h-12v-6q12 2 12 4z" />
    <glyph glyph-name="i" unicode="i" horiz-adv-x="531" 
d="M337 925q28 1 25 2l-1 -2l2 -17l7 -16q1 0 -7 -24q13 -31 13 -32q-13 -57 -45 -98q5 -40 -111 -90q-73 23 -159 88l-4 32q-16 6 -13 7l1 -2q-1 3 91 18zM74 566l1 1q95 -39 122 -100q2 -18 -75 -283q-14 -58 -11 -79l2 -16q44 12 184 174q35 23 243 318q26 0 25 1l-1 -18
q10 -14 11 -20q-15 -50 -12 -73l5 -18q1 0 -17 -34q7 -10 7 -6q3 0 -70 -114l13 -15l-1 9l-52 -83l-116 -150q-19 -3 -17 -42q-86 -92 -138 -99q-15 2 -21 1l-5 -4q-172 42 -181 114q-12 105 26 253q46 137 71 265q-10 11 -10 10v-2q9 1 17 10z" />
    <glyph glyph-name="j" unicode="j" horiz-adv-x="343" 
d="M245 824q13 -8 24 -8q8 4 12 4q40 -38 40 -54q-4 -13 -8 -13l4 -8v-4q0 -55 -112 -71q-70 11 -108 42q0 8 20 8v4q0 8 -8 8q-7 -4 -16 -4v9h12q32 0 140 87zM169 562q8 -4 12 -4q21 4 24 4q80 -14 80 -59v-16q-56 -163 -80 -400q-50 -241 -180 -424q-27 -48 -80 -109
q0 -19 -60 -70q-44 -46 -76 -96q-136 -115 -188 -125q-25 8 -32 8l-16 -4q-13 8 -20 8q-8 -4 -12 -4q0 9 -48 13v8q20 3 20 13q-20 5 -20 12l40 -4h4q55 21 92 79q48 34 48 46q17 0 36 46q10 0 20 29q80 79 100 141q7 0 28 50q87 146 148 354q12 85 32 171h-4q20 114 68 237
v29q-16 16 -28 46v4h4q23 -12 32 -12l-8 12v8q54 6 64 9z" />
    <glyph glyph-name="k" unicode="k" horiz-adv-x="612" 
d="M180 1088q9 -2 13 -2l35 9q74 -12 82 -69q4 -26 -55 -246q-46 -223 -69 -288q-3 -33 -2 -41v-4l8 1q86 126 147 251l-5 7v4l28 24q5 25 13 26h28q0 8 7 9q71 -12 76 -50q4 -29 -135 -221q-89 -140 -143 -193l-3 -9l1 -4q73 -118 80 -170q26 -51 97 -92l8 1q77 11 255 432
l16 2q3 -20 11 -19l5 -40q6 -36 -21 -164q-13 -65 -57 -145l1 -4l5 -8q-72 -118 -136 -127l-12 -2q-93 -1 -94 7l-7 -5q-75 27 -139 70q-46 35 -87 133q-1 8 -9 7l-8 -1q-18 -74 -37 -199q-7 -1 -26 -44q-22 -16 -20 -31q-88 -5 -93 31l-2 12q-1 4 3 5l-5 7l-4 28
q-1 10 3 36q-3 0 -4 4q31 4 32 121q14 98 53 258q66 282 64 292q-5 7 -5 11q19 3 58 222q-4 30 26 101v4l-10 14q19 8 18 15q-10 12 -11 19q27 13 26 15z" />
    <glyph glyph-name="l" unicode="l" horiz-adv-x="242" 
d="M194 1085h4q8 1 9 -3l19 5l20 1q98 -14 103 -88v-4q-130 -323 -134 -411q-61 -159 -154 -649h4q-18 -80 -26 -190q-11 -1 -22 -138q-4 0 -27 -66q-85 -6 -100 45q4 8 3 12q-4 7 -5 12l8 4q-14 23 -15 39q24 2 13 150q3 84 14 85q2 -8 9 -8l-2 20l-7 -4l-8 -1q2 77 18 78
q14 1 15 73h-4l-11 -9h-4l6 28l7 1l9 -4l-2 28l-5 8q24 2 21 50l-4 -1q-6 16 -10 16q10 30 10 36l8 1l8 -3q-1 12 11 12l-4 8q-1 8 11 65v4l-12 -1q0 24 10 25l8 -3l32 114v4h-4q-8 -5 -12 -5v4q0 24 10 25l12 1l-1 12q-8 -1 -8 7l-1 8q20 4 19 13l-1 12q16 2 14 30v3
l-15 -17h-4v4l14 29l8 -3q8 0 7 8q-4 0 -4 4l-8 -5h-4v4q3 28 14 29l1 -8l4 1q8 0 7 8l-1 8l-12 -1q44 168 124 394q-1 20 10 37q-1 8 -10 27q23 5 22 18q-4 7 -5 12zM81 663l1 -16l4 1l3 16zM64 622v-12q8 5 12 5l-1 12q-7 -5 -11 -5zM-5 400l8 1l1 -12q-8 0 -8 8zM-45 245
l12 1q-8 -11 -9 -41h-8l-1 8q0 3 6 32zM-49 185l1 -8h4l-1 8h-4zM-92 -51q4 -6 5 -20l8 1l3 24h-8z" />
    <glyph glyph-name="m" unicode="m" horiz-adv-x="1145" 
d="M405 650h8q56 -2 140 -82h11q82 62 108 63q152 -46 152 -114v-15q0 -35 -39 -160q-39 -129 -39 -192h22q288 284 288 309l110 108q42 65 45 65l-1 -9l4 -42q-30 -75 -30 -93q8 -1 8 0v-15q0 -25 -56 -116v-16q4 -9 4 -5q-20 -14 -54 -72q-164 -198 -170 -198
q-77 -86 -130 -86q-54 0 -150 79q-31 29 -31 87q0 76 74 311v18h-18q-103 -107 -156 -231q-43 -55 -100 -224q-16 -7 -25 -7q-77 23 -113 61q0 21 134 332q13 36 27 115q0 21 -27 21q-189 -149 -318 -420q-36 -162 -59 -162q0 4 -92 28q-42 33 -42 37q9 31 9 44q0 16 1 16
q59 137 124 401l6 61h-16q-19 0 -21 -19h4q1 0 1 -4q17 43 56 65l15 12q60 -8 124 -66h17q96 115 195 115z" />
    <glyph glyph-name="n" unicode="n" horiz-adv-x="728" 
d="M359 636l33 4q132 -7 143 -69q-7 -97 -48 -236q-3 -38 -29 -115q2 -8 -13 -76l1 -5l5 1q141 105 288 319l81 36l-36 -85q-53 -128 -119 -222q-93 -127 -236 -229q-50 -6 -113 47q-25 21 -28 37q-12 64 50 237q10 4 49 179q12 54 10 63l-4 21l-16 -2q-50 -31 -118 -130
q-22 -5 -106 -199l-22 -59l-59 -213l-46 -13q-59 5 -114 48l-1 4q19 18 36 99q46 80 37 125q13 3 20 70l-7 8q24 4 44 183q41 106 70 127l27 -4q17 11 26 13q1 -6 61 -37l11 2q77 62 123 71zM330 204v-4h12l-3 14q-11 -3 -9 -10z" />
    <glyph glyph-name="o" unicode="o" horiz-adv-x="606" 
d="M311 631q91 -41 91 -123v-36q0 -140 -44 -293q0 -11 -20 -87q13 -45 33 -58h13q38 0 243 256h15q24 -12 24 -31q-25 -86 -69 -204q-72 -109 -119 -109q0 -11 -86 -16q-60 6 -111 48q-67 -66 -119 -78q0 -4 -29 -10q-103 0 -166 88q-15 0 -38 108q5 8 5 14v4q0 -6 -8 -6
l11 33l-3 7q0 25 24 80q0 69 33 85l2 11q-3 6 -3 28q12 0 16 37q64 139 64 160q58 79 90 87l17 -4l26 4q19 0 52 -20q13 0 56 25zM66 65q13 -79 26 -79q49 0 101 128q-23 31 -23 80q-7 0 -12 58q3 42 4 42q-1 4 -9 4q11 132 21 132q0 -4 -5 5l10 35h14q-53 -82 -103 -241
q-24 -81 -24 -164z" />
    <glyph glyph-name="p" unicode="p" horiz-adv-x="573" 
d="M278 640l8 -4h48q142 0 184 -136l-4 -8q0 -253 -180 -384q-26 -35 -172 -96q-55 -24 -76 -28q-22 -92 -28 -92q-60 -267 -132 -364q0 -18 -68 -32q-7 4 -16 4q0 -4 -4 -4q0 4 -4 4q16 31 24 88v36h12v4l4 48h-4q26 171 44 204q-4 21 -4 24l8 16q-4 8 -4 12q6 0 16 16
l-4 20q8 0 16 64q4 0 4 4l-4 28q14 18 44 144h-4q28 70 52 228h-4q4 10 8 40q-16 30 -16 36q4 0 4 4h-4q0 -4 -4 -4q0 4 -4 4q4 7 4 16h24l-4 28q8 0 8 4l8 -4q51 0 132 56q80 24 92 24zM118 84h4q21 0 120 84q8 -4 12 -4v4q-4 8 -4 12q0 6 16 20l8 -4q10 8 16 8v24
q24 0 60 108q4 0 4 4l-4 20q8 0 20 84q8 48 8 72q0 56 -56 56q-108 -23 -108 -72q-40 -154 -48 -236q-32 -84 -48 -180zM14 260v-8h4v8h-4zM2 220q0 -18 -4 -24v-4h4l8 28h-8zM-6 188l-8 -28h4q8 0 8 8v20h-4zM-66 -80h8q8 39 8 44h-4q-12 0 -12 -44zM-70 -100v-4h8v12
q-8 -1 -8 -8z" />
    <glyph glyph-name="q" unicode="q" horiz-adv-x="670" 
d="M305 633l69 2l24 8q88 14 157 -36q72 -19 74 -26l1 -3q2 -15 -49 -121q-30 -57 -99 -295l-54 -150l7 -7v-4q2 -12 -33 -102q-42 -213 -32 -276h6q35 26 47 76q36 18 66 136q22 29 28 98q14 2 37 50q12 2 31 77q7 2 12 14l-10 4q19 50 26 52h4l2 -8l10 2q7 2 12 14v4l-6 8
q19 2 19 27l-17 -15v4l47 105l14 2l1 -4q-11 -22 -10 -30q7 1 32 41q2 -4 6 -3l-2 12l20 3l-2 -16q7 -12 11 -11l-14 -35q10 -27 10 -30q-11 -18 -69 -258q-14 -85 -53 -162q-28 -115 -159 -264l-82 -49l-25 1q-32 -10 -53 -12q-29 11 -88 18v4l4 9q-13 11 -14 18l-10 -2
l2 -12l-9 -1q-15 82 47 417q20 54 19 63l-1 4l-9 -1q-39 -35 -120 -63q-83 -5 -148 17q-31 5 -32 12q15 2 14 10l-8 14q7 15 6 26l-1 4l-10 -2q0 4 4 5l-12 14q-2 12 22 16l-5 28q-1 4 -5 2q35 88 30 114l-9 -5l-5 -1l53 130q20 85 121 197q61 85 160 142zM106 109
q11 -13 13 -22t-2 -18l10 -22l2 -12h25q90 98 157 214q148 248 141 289q-39 -6 -45 26l-14 -2q-54 -9 -176 -173q-120 -231 -111 -280zM699 297q0 -4 6 -3q-4 -9 -4 -13l-9 -1l-2 7q1 8 9 10zM-63 70l1 -4q-2 -36 -13 -38l-1 4q2 36 13 38zM-78 15l9 1l-2 -40q6 -7 6 -11
l2 -4l-6 -1q0 6 -14 22q5 31 5 33zM-59 -43l3 -12q-9 -1 -11 7z" />
    <glyph glyph-name="r" unicode="r" horiz-adv-x="569" 
d="M51 663q74 -28 171 -122h6q63 0 213 49q46 0 112 -58v-5q0 -31 -130 -190q-148 -169 -148 -397h13q147 115 147 149q20 0 71 76q21 0 65 73q6 0 47 23v-5l-6 -8q0 -5 6 -15l-6 -22l6 -23q-174 -344 -259 -344q-34 -13 -65 -13q-201 50 -201 109h12v-10h6v18q0 32 -6 55
q0 107 123 321q0 6 66 91v3h-12v10l12 13v5q0 10 -77 22h-12q-62 -212 -77 -212q0 -11 -64 -18q-54 2 -54 10q0 4 -47 17v32q23 0 65 126q52 97 52 109l-105 90zM275 418h7v-13h-17v5q1 8 10 8zM111 120v-23h-12v14q2 9 12 9zM87 76h12v-10q0 -9 -12 -9h-7v4q7 10 7 15z
M76 16h11q0 -5 6 -13h-6l6 -10v-8q0 -10 -13 -10l-4 10l4 8zM80 -29q13 -1 13 -9v-14q-13 0 -13 10v13z" />
    <glyph glyph-name="s" unicode="s" horiz-adv-x="503" 
d="M127 608q85 -18 85 -66q-58 -68 -58 -172q2 -19 132 -106h-7q2 8 47 40q1 11 27 28l-6 8q5 20 20 20h9q15 0 15 -4q-6 0 4 12l-10 20q41 12 63 57q88 59 102 59h15v-18q-18 -18 -18 -16v2h-9l18 12q22 -2 22 -20q-22 -45 -98 -118q0 -58 -107 -133q0 -7 -15 -21
q68 -121 68 -133q14 -49 14 -69v-32q0 -118 -146 -275q-81 -69 -151 -75q-17 4 -20 4v-6q-94 14 -167 50q0 8 -18 56v10q0 38 19 59q-6 1 -6 29v25l27 -15h-6l5 17q-3 7 -3 23q10 0 64 108q32 28 39 67q103 86 124 141q0 30 -156 142q-33 31 -60 80l7 11v39q-18 0 -18 19
q2 17 21 17q8 -4 5 -4q23 40 23 41l-7 27l91 38q0 22 20 22zM101 -280q3 -8 0 -8l36 20h23l-4 -8h-13v-8h-9v14q0 11 38 38q22 -2 22 -8q-2 0 57 92q5 0 7 4l-3 19q10 21 22 68q0 -7 -6 -7l6 31v11q-9 10 -9 19l9 12q-10 63 -8 63q-168 -173 -168 -352z" />
    <glyph glyph-name="t" unicode="t" horiz-adv-x="298" 
d="M320 1080q58 0 104 -73q-53 -164 -98 -245q-3 2 -1 2l185 36l8 -3q27 7 42 7q33 -20 33 -66v-20q-71 -66 -197 -66q-139 -23 -139 -56q-44 -95 -66 -210q-42 -71 -70 -236q-25 -39 -43 -165l-6 -5l3 -5q-10 -31 -10 -33v-8q0 -6 6 -16l-10 -18l6 -29q-15 -4 -15 -13
q4 -6 4 -30l-8 -4l4 -35q-9 -27 -9 -32l6 -11q-6 -10 -6 -16v-8q0 6 7 6l-9 -40l2 -9v-17q0 -37 5 -104q0 -34 -41 -34q-16 0 -35 11l-6 -3q-43 0 -82 80q0 42 -15 72q19 0 19 22l9 -4v-8l3 2h-21q0 29 18 43v44l2 17h-5q14 57 20 65l-4 20q0 9 11 75h-6l20 65q-3 6 -3 23
q10 0 13 5v47q13 0 13 -2v40q0 12 12 18l-4 14q14 68 31 118q0 -8 -16 -8q31 37 37 72q-3 7 -3 24q13 0 37 84q2 0 2 -5q-5 8 -5 25q24 0 26 24q-8 0 -8 18v18q14 0 16 3l-9 15q6 10 6 2h6q-27 0 -104 -16h-24q-127 26 -127 68q-4 0 -4 22q247 62 316 92q95 233 113 266
q5 0 -6 19q0 53 70 69zM185 888h24v-28l-29 -14v23q5 7 5 19zM-125 -168h15q18 -3 18 -18v-14h-33v32zM-116 -202q28 -5 28 -30h-28v30zM-125 -224h24v-28h-24v28zM-121 -248h29v-24h-29v24z" />
    <glyph glyph-name="u" unicode="u" horiz-adv-x="695" 
d="M136 639q53 -18 80 -57q0 -12 4 -12l-120 -268l-53 -160v-4l4 -8q21 0 27 42q20 0 111 161q20 24 53 88q31 19 72 99q9 0 57 65l23 -3q22 0 22 15q102 -28 102 -57v-12q-70 -122 -111 -256q0 -4 4 -4q-35 -129 -35 -207v-19h9q7 1 71 73q8 4 13 4l-4 7l97 130h5v-11l9 4
l-5 7v8q5 0 14 4q0 -4 4 -4l22 54q94 125 143 160q0 -5 13 -15q-9 -12 -9 -19h9l9 4l4 -8q-9 0 -9 -11l5 -8q-39 -75 -58 -100l4 -7v-8q0 -7 -8 -7q0 3 -5 3q0 -56 -164 -290q-49 -59 -125 -81q-72 0 -182 92q0 9 -13 23v4q0 4 4 4q-9 12 -9 57q-7 0 -120 -168
q-47 -27 -75 -27q-156 40 -156 122v4q13 0 13 8v8q-13 0 -13 7q13 4 13 8q2 68 156 436v11q12 0 22 42q0 4 -4 4q16 54 57 54q9 -4 14 -4zM647 352v-8q9 0 9 8h-9zM536 214v-7h9v7h-9zM33 103l9 -3l9 11v12h-4q-8 0 -14 -20z" />
    <glyph glyph-name="v" unicode="v" horiz-adv-x="499" 
d="M533 854h8q34 -23 35 -26l3 -52l-27 -45l5 -8l1 -28q1 -12 -45 -86q1 -11 -105 -195q1 -15 -51 -127q5 -6 5 -15v-4q-74 -148 -131 -328q-54 -67 -103 -70q-92 36 -111 54q-1 12 -9 12q1 -8 -8 -9h-4q-28 55 -29 87q0 72 8 72l-5 20v4l10 40q-5 8 -5 12q21 99 34 134
q1 8 8 9v-4q-3 -26 -17 -65l5 -24h9q10 44 9 53q-5 8 -5 12q13 0 18 49q9 0 11 24l-13 8q-7 -1 -10 -37q-8 0 -7 -12l-9 -1v4q9 69 21 70q1 -16 9 -16q16 1 32 102q-5 7 -5 12l15 29l-1 23l-6 28q6 1 16 9l29 -2q0 10 16 17q92 -25 94 -59l-53 -232l4 1q-9 -16 -14 -49
q2 -20 9 -20q20 11 34 58q10 1 22 54q27 61 42 62q0 9 -5 16q26 58 42 74v-8h4q6 1 12 13v4q-1 8 -9 8q12 39 61 95h-4q6 27 38 58l1 -8q8 0 7 8q-8 0 -8 8l-1 4l8 12l-9 12v4q6 0 42 54q25 21 62 84zM402 678l4 -7q-4 -1 -12 -5v4q1 8 8 8zM354 568l1 -12q8 0 8 8l-1 4h-8z
M58 523l5 1q-4 -8 -4 -13h-8v4q1 8 7 8zM44 483h4l1 -16l-8 3q3 8 3 13zM31 422h8v-4q-3 -8 -3 -12l-8 -1v4q3 8 3 13zM-6 183l1 -12l4 1q6 0 16 20q-5 7 -5 16q-17 -5 -16 -25zM-4 151q1 -12 -15 -24v-8q5 0 13 -4q11 23 10 37zM-15 59v-8l5 -20h9q-10 25 -10 28h-4z" />
    <glyph glyph-name="w" unicode="w" horiz-adv-x="849" 
d="M939 968q3 -8 12 -7l14 9l16 2q14 1 27 -38q-7 -67 -25 -123l9 -24q-7 -27 -41 -48q10 -3 16 -2l1 -4q-18 -10 -24 -59l-5 -1l6 -7q-189 -413 -328 -632q-20 -29 -78 -44l-11 -1q-96 -9 -192 50q-23 70 -32 69q-10 -37 -42 -76q-42 -93 -128 -101q-83 2 -177 47
q-1 7 -18 18l-1 8q0 8 9 9l9 -23l10 1l-2 16q-13 86 40 197l-6 7q48 110 88 239q20 16 24 87l-8 23l34 19l27 -1q4 7 3 16q101 0 107 -42q-76 -173 -125 -390l1 -4h5l99 195l6 1l1 -12h6q7 1 12 26q7 0 14 13l-1 4l-12 11q-1 6 19 14q-6 7 -7 11q16 20 60 103q20 29 67 51
q35 3 109 -26l6 -40q-55 -204 -64 -401l10 1q36 16 120 165l252 455q28 40 36 88q21 3 36 77l-10 -2q16 75 26 76zM937 943l2 -12l5 1l-1 12zM84 534l2 -12l-10 -1l-1 4q0 8 9 9zM332 171q2 -7 -9 -8l2 -12q3 -8 11 -7h6l2 21q-1 8 -12 6zM-53 90l1 -12l-10 -1l-1 4
q1 8 10 9zM-67 72l11 1l-2 -28l3 -16l-11 -1q-2 16 -7 15q8 17 6 29z" />
    <glyph glyph-name="x" unicode="x" horiz-adv-x="499" 
d="M692 717q1 -8 -3 -8q7 4 24 4q0 -4 10 -4l-9 -18q3 -4 3 -26q-12 0 -22 -36q-22 0 -122 -82q-73 -46 -104 -76q-132 -90 -159 -126q51 -195 78 -318q2 -1 18 -57q-26 -45 -43 -45q-65 0 -112 56q-17 30 -59 132h2q-1 2 -1 22v14h8v-5q-5 8 -14 49h6l-20 -10q0 14 7 14
q-114 -132 -165 -224q-37 -36 -64 -36q-52 0 -92 36h-14v27q60 39 126 153q74 94 159 191l4 13h-9v36q-4 8 -12 8q0 32 10 32q2 -9 -19 0l5 34q-22 118 -24 118q0 -4 -24 -4v16l1 2l-21 10q0 28 68 56h20q108 -47 108 -113q5 -4 29 -83q3 0 67 50q79 59 228 140
q71 58 131 58zM69 573h15q17 -3 17 -18q0 -18 -24 -18l-8 16v20zM173 205h24v-28h-24v28z" />
    <glyph glyph-name="y" unicode="y" horiz-adv-x="554" 
d="M549 679q108 -15 114 -56q-84 -352 -228 -708q-148 -347 -231 -451q-73 -48 -121 -53q-54 -6 -119 25q6 14 4 25l34 4q10 12 56 44q23 48 21 59l21 2l3 -1q60 97 58 108l-2 22q24 2 40 63l56 97q11 2 5 42q29 3 29 4q-5 -2 -8 -2l1 -4l-21 -2l17 30q5 0 1 24q27 3 31 13
l2 -9l-11 -1l-4 21q23 27 40 64l1 -1l6 2q-2 0 -27 -44q-61 -75 -135 -85q-110 -13 -213 48l-2 19h8l-7 18l4 35l8 -2l3 -17q-17 -2 -21 30h-4l4 -5v8l16 79l-16 -2q58 74 56 95l-11 11q18 24 22 50l-7 14q-2 11 2 20l-4 -1l-4 23q22 4 21 48q9 0 11 -2q-2 7 -10 15
q33 92 35 184q46 10 46 22q89 11 106 -28q2 -12 -66 -294q-39 -175 -25 -260h1q27 10 134 209q8 1 9 3q-4 5 -6 15q51 65 63 92q-2 13 29 60h6q-8 57 57 115q2 -15 -11 -16l5 5v-9l-40 -5q61 48 68 93q11 1 12 4l-13 13q16 62 73 68zM363 70l-1 4l-16 -2l-1 -4zM-55 5
q36 0 38 -15l2 -14l-34 -4z" />
    <glyph glyph-name="z" unicode="z" horiz-adv-x="429" 
d="M300 619q9 -4 18 -4h4q-5 0 -5 8q103 -37 103 -82v-20q0 -73 -102 -263v6q102 -45 102 -132q-21 -194 -224 -485q-115 -153 -180 -216q-8 0 -45 -27q-70 -29 -90 -29q-64 23 -73 44v20q48 0 126 88q29 0 121 144l83 119q52 97 69 162q17 8 17 5v-6q3 0 -17 9
q27 52 50 142v11q0 -2 6 -2q-66 -92 -124 -133q-77 18 -116 65l-7 11v15q0 18 26 18q9 -4 7 -4q130 193 174 312q16 0 38 91v5h6q-22 0 -154 -92q-12 0 -12 -9q-94 37 -94 61h-9v32q38 0 204 107q49 21 98 29z" />
    <glyph glyph-name="braceleft" unicode="{" horiz-adv-x="426" 
d="M269 1422h12q60 -8 103 -57l8 -28v-12q0 -20 -42 -24l-25 3q-25 0 -52 -196v-122q0 -34 -5 -34l2 -6v-16q-9 -78 -78 -205q1 0 1 7v-2q78 -65 90 -154q8 -42 8 -106v-66q0 -21 -4 -56q0 7 5 7l-5 -46v-156q0 -20 7 -39h-9q50 91 62 91h31q0 -7 5 -7l-5 -29q0 -6 14 -6
v-21q-7 -8 -14 -42v-20q0 -8 10 -8q-30 -114 -87 -114q-114 12 -114 60q-16 9 -43 76l3 6q-9 15 -9 102v28q0 8 -4 15l4 20q0 14 3 132q0 27 6 27l-2 14v25q0 5 7 30v82q0 7 -13 7l9 20q-14 57 -24 57h-4q-5 0 -11 -3q-69 0 -98 51q5 9 5 12l2 -4l-14 -7l-15 30q19 0 42 32
q47 0 66 43l31 72l20 79l-4 9q8 14 8 20v105q0 173 78 293q-1 0 -1 -6h-4v13q0 15 44 24zM208 1394h21q-13 -34 -31 -34l-11 21z" />
    <glyph glyph-name="bar" unicode="|" horiz-adv-x="316" 
d="M108 1578q75 0 108 -88q0 -21 8 -84q-4 -88 -4 -156v-84q0 -17 4 -44q0 -4 -4 -4q4 -36 8 -380q8 -13 8 -24v-76q0 -32 -4 -76q4 -8 4 -12t-4 -4l4 -20v-136q0 -49 -8 -92h4l-4 -8q0 -11 8 -24q0 -4 -4 -12q4 -34 4 -56v-24q0 -28 -8 -28q4 -8 4 -12t-4 -4q0 -4 4 -12
q-13 -152 -20 -160q8 -20 8 -28l-8 -20q4 -8 4 -12q-23 -43 -64 -68q-28 0 -76 52l4 16q-8 33 -12 64h16v296q0 9 -4 16q4 7 4 16v36q0 4 -4 4l4 8v52q0 9 -4 16q4 7 4 16q0 20 -4 60h4q-8 15 -8 32v52q0 4 8 32v24q0 12 -4 12l4 20v52q0 9 -4 16q4 7 4 16q0 4 -4 4l4 8v8
q0 4 -8 32v228q0 4 -4 4l4 8v16q0 28 -4 32q4 27 4 44v16q0 23 -4 64l4 8q-4 27 -4 44q1 60 8 60l-4 48v112q0 29 -36 52v4q34 48 68 48z" />
    <glyph glyph-name="braceright" unicode="}" horiz-adv-x="368" 
d="M172 1411q126 0 169 -88l4 -23v-36q0 -20 -54 -235q-20 -97 -20 -135q-4 0 -4 -1v-95q1 -13 9 -25q61 0 90 -50q0 -49 -45 -64q-19 -39 -19 -59h10l-10 -19v-26q0 -35 -5 -35l2 -14v-8q0 -13 -4 -31l18 -86l-3 -7q31 -130 38 -228q0 -118 -134 -204q-16 0 -40 -7h-34
q-48 8 -48 33l-4 2h-12l-19 -10v33l9 18l14 -7h-6v21h41q42 10 83 92l10 64q-42 296 -42 317q0 120 27 196q-59 75 -62 122q-4 0 -4 17q4 6 4 10l-8 27l8 12v15l2 25q-2 0 -2 24q10 0 13 61h-18q27 24 49 161q5 0 5 -2l-8 17q12 21 24 102h10q-38 -56 -53 -56q-2 -1 -2 -9
q-45 7 -45 3l4 1q-53 18 -53 41l5 3h-6q-11 0 -25 34q10 25 82 89q28 20 59 20z" />
    <glyph glyph-name="asciitilde" unicode="~" horiz-adv-x="580" 
d="M530 1356q46 -46 46 -96q-15 0 -37 -82q-57 -102 -121 -102q-82 0 -244 132h-10q-19 -9 -58 -105q-33 -15 -43 -15q-46 26 -79 88v28h17l12 -8h-5q0 27 41 67q7 -3 -5 -3v28q32 16 118 20q45 0 166 -106q4 -2 10 -2h8q28 0 125 89q12 10 36 67h23z" />
    <glyph glyph-name="exclamdown" unicode="&#xa1;" horiz-adv-x="672" 
 />
    <glyph glyph-name="cent" unicode="&#xa2;" horiz-adv-x="1139" 
 />
    <glyph glyph-name="sterling" unicode="&#xa3;" 
 />
    <glyph glyph-name="currency" unicode="&#xa4;" 
 />
    <glyph glyph-name="yen" unicode="&#xa5;" horiz-adv-x="1262" 
 />
    <glyph glyph-name="brokenbar" unicode="&#xa6;" 
 />
    <glyph glyph-name="section" unicode="&#xa7;" 
 />
    <glyph glyph-name="dieresis" unicode="&#xa8;" horiz-adv-x="1024" 
 />
    <glyph glyph-name="copyright" unicode="&#xa9;" horiz-adv-x="1674" 
 />
    <glyph glyph-name="ordfeminine" unicode="&#xaa;" horiz-adv-x="648" 
 />
    <glyph glyph-name="guillemotleft" unicode="&#xab;" horiz-adv-x="944" 
 />
    <glyph glyph-name="logicalnot" unicode="&#xac;" 
 />
    <glyph glyph-name="registered" unicode="&#xae;" horiz-adv-x="1674" 
 />
    <glyph glyph-name="macron" unicode="&#xaf;" horiz-adv-x="670" 
 />
    <glyph glyph-name="degree" unicode="&#xb0;" horiz-adv-x="674" 
 />
    <glyph glyph-name="plusminus" unicode="&#xb1;" 
 />
    <glyph glyph-name="uni00B2" unicode="&#xb2;" 
 />
    <glyph glyph-name="uni00B3" unicode="&#xb3;" 
 />
    <glyph glyph-name="acute" unicode="&#xb4;" horiz-adv-x="1024" 
 />
    <glyph glyph-name="mu" unicode="&#xb5;" horiz-adv-x="1180" 
 />
    <glyph glyph-name="paragraph" unicode="&#xb6;" horiz-adv-x="1024" 
 />
    <glyph glyph-name="periodcentered" unicode="&#xb7;" horiz-adv-x="508" 
 />
    <glyph glyph-name="periodcentered" unicode="&#x2219;" horiz-adv-x="508" 
 />
    <glyph glyph-name="cedilla" unicode="&#xb8;" horiz-adv-x="1024" 
 />
    <glyph glyph-name="uni00B9" unicode="&#xb9;" 
 />
    <glyph glyph-name="ordmasculine" unicode="&#xba;" horiz-adv-x="718" 
 />
    <glyph glyph-name="guillemotright" unicode="&#xbb;" horiz-adv-x="944" 
 />
    <glyph glyph-name="onequarter" unicode="&#xbc;" horiz-adv-x="1708" 
 />
    <glyph glyph-name="onehalf" unicode="&#xbd;" horiz-adv-x="1964" 
 />
    <glyph glyph-name="threequarters" unicode="&#xbe;" horiz-adv-x="1708" 
 />
    <glyph glyph-name="questiondown" unicode="&#xbf;" horiz-adv-x="748" 
 />
    <glyph glyph-name="Agrave" unicode="&#xc0;" horiz-adv-x="1540" 
 />
    <glyph glyph-name="Aacute" unicode="&#xc1;" horiz-adv-x="1540" 
 />
    <glyph glyph-name="Acircumflex" unicode="&#xc2;" horiz-adv-x="1540" 
 />
    <glyph glyph-name="Atilde" unicode="&#xc3;" horiz-adv-x="1540" 
 />
    <glyph glyph-name="Adieresis" unicode="&#xc4;" horiz-adv-x="1540" 
 />
    <glyph glyph-name="Aring" unicode="&#xc5;" horiz-adv-x="1540" 
 />
    <glyph glyph-name="AE" unicode="&#xc6;" horiz-adv-x="2118" 
 />
    <glyph glyph-name="Ccedilla" unicode="&#xc7;" horiz-adv-x="1399" 
 />
    <glyph glyph-name="Egrave" unicode="&#xc8;" horiz-adv-x="1151" 
 />
    <glyph glyph-name="Eacute" unicode="&#xc9;" horiz-adv-x="1151" 
 />
    <glyph glyph-name="Ecircumflex" unicode="&#xca;" horiz-adv-x="1151" 
 />
    <glyph glyph-name="Edieresis" unicode="&#xcb;" horiz-adv-x="1151" 
 />
    <glyph glyph-name="Igrave" unicode="&#xcc;" horiz-adv-x="657" 
 />
    <glyph glyph-name="Iacute" unicode="&#xcd;" horiz-adv-x="657" 
 />
    <glyph glyph-name="Icircumflex" unicode="&#xce;" horiz-adv-x="657" 
 />
    <glyph glyph-name="Idieresis" unicode="&#xcf;" horiz-adv-x="657" 
 />
    <glyph glyph-name="Eth" unicode="&#xd0;" horiz-adv-x="1518" 
 />
    <glyph glyph-name="Ntilde" unicode="&#xd1;" horiz-adv-x="1554" 
 />
    <glyph glyph-name="Ograve" unicode="&#xd2;" horiz-adv-x="1614" 
 />
    <glyph glyph-name="Oacute" unicode="&#xd3;" horiz-adv-x="1614" 
 />
    <glyph glyph-name="Ocircumflex" unicode="&#xd4;" horiz-adv-x="1614" 
 />
    <glyph glyph-name="Otilde" unicode="&#xd5;" horiz-adv-x="1614" 
 />
    <glyph glyph-name="Odieresis" unicode="&#xd6;" horiz-adv-x="1614" 
 />
    <glyph glyph-name="multiply" unicode="&#xd7;" horiz-adv-x="643" 
d="M543 863q52 -41 80 -100v-16q-22 -22 -144 -176v-4q128 -136 128 -184q-9 -25 -32 -40q-100 18 -100 44q-24 9 -24 32q0 5 -32 16q0 13 -24 32q-6 0 -64 -68l-116 -112l-108 -68q-8 4 -12 4l-20 -12q-15 20 -32 20l-8 -4l-4 8l4 24v4q-17 0 -24 12q0 30 24 44h4
q0 -24 8 -24q39 23 128 148l112 140v4q-11 17 -44 36q0 10 -68 56q-57 48 -104 116q8 4 12 4q22 0 64 -8q11 20 16 20h4l4 -16h24q33 -30 124 -92q25 -28 44 -28l104 128v12l-20 -4h-12v4q4 12 8 12l-4 8v8l28 8h68q0 12 8 12zM103 723h12v-8h-12v8z" />
    <glyph glyph-name="Oslash" unicode="&#xd8;" horiz-adv-x="1614" 
 />
    <glyph glyph-name="Ugrave" unicode="&#xd9;" horiz-adv-x="1501" 
 />
    <glyph glyph-name="Uacute" unicode="&#xda;" horiz-adv-x="1501" 
 />
    <glyph glyph-name="Ucircumflex" unicode="&#xdb;" horiz-adv-x="1501" 
 />
    <glyph glyph-name="Udieresis" unicode="&#xdc;" horiz-adv-x="1501" 
 />
    <glyph glyph-name="Yacute" unicode="&#xdd;" horiz-adv-x="1233" 
 />
    <glyph glyph-name="Thorn" unicode="&#xde;" horiz-adv-x="1120" 
 />
    <glyph glyph-name="germandbls" unicode="&#xdf;" horiz-adv-x="1251" 
 />
    <glyph glyph-name="agrave" unicode="&#xe0;" horiz-adv-x="922" 
 />
    <glyph glyph-name="aacute" unicode="&#xe1;" horiz-adv-x="922" 
 />
    <glyph glyph-name="acircumflex" unicode="&#xe2;" horiz-adv-x="922" 
 />
    <glyph glyph-name="atilde" unicode="&#xe3;" horiz-adv-x="922" 
 />
    <glyph glyph-name="adieresis" unicode="&#xe4;" horiz-adv-x="922" 
 />
    <glyph glyph-name="aring" unicode="&#xe5;" horiz-adv-x="922" 
 />
    <glyph glyph-name="ae" unicode="&#xe6;" horiz-adv-x="1454" 
 />
    <glyph glyph-name="ccedilla" unicode="&#xe7;" horiz-adv-x="905" 
 />
    <glyph glyph-name="egrave" unicode="&#xe8;" horiz-adv-x="909" 
 />
    <glyph glyph-name="eacute" unicode="&#xe9;" horiz-adv-x="909" 
 />
    <glyph glyph-name="ecircumflex" unicode="&#xea;" horiz-adv-x="909" 
 />
    <glyph glyph-name="edieresis" unicode="&#xeb;" horiz-adv-x="909" 
 />
    <glyph glyph-name="igrave" unicode="&#xec;" horiz-adv-x="514" 
 />
    <glyph glyph-name="iacute" unicode="&#xed;" horiz-adv-x="514" 
 />
    <glyph glyph-name="icircumflex" unicode="&#xee;" horiz-adv-x="514" 
 />
    <glyph glyph-name="idieresis" unicode="&#xef;" horiz-adv-x="514" 
 />
    <glyph glyph-name="eth" unicode="&#xf0;" horiz-adv-x="1139" 
 />
    <glyph glyph-name="ntilde" unicode="&#xf1;" horiz-adv-x="1108" 
 />
    <glyph glyph-name="ograve" unicode="&#xf2;" horiz-adv-x="1010" 
 />
    <glyph glyph-name="oacute" unicode="&#xf3;" horiz-adv-x="1010" 
 />
    <glyph glyph-name="ocircumflex" unicode="&#xf4;" horiz-adv-x="1010" 
 />
    <glyph glyph-name="otilde" unicode="&#xf5;" horiz-adv-x="1010" 
 />
    <glyph glyph-name="odieresis" unicode="&#xf6;" horiz-adv-x="1010" 
 />
    <glyph glyph-name="divide" unicode="&#xf7;" 
d="M405 900l18 -4h37q32 0 66 4q48 0 67 -45q-19 0 -30 -44q-26 -25 -33 -25q-31 -11 -51 -11q-28 0 -100 36q-22 0 -22 8v3q11 0 11 8v7q-25 25 -25 52q7 0 7 3l18 -3h11q18 0 26 11zM512 679q14 -4 29 -4h30q26 -7 29 -7h15q0 -13 88 -22q16 -12 92 -22l70 -15q3 0 29 7
h11q37 0 37 -36q-5 -21 -29 -48q-4 -8 -4 -11h-70q-4 0 -4 -4q-138 37 -231 37q-84 -4 -125 -4q-245 -59 -276 -59q-44 0 -103 26l-41 11l4 37q-11 0 -22 33v7h37q13 0 26 15l14 -11h11q183 52 269 63q0 3 11 3h73q16 0 30 4zM567 421q73 0 73 -29h8v-4q-17 -12 -33 -73
q-45 -59 -74 -59q-88 14 -110 33q-48 7 -48 18q9 8 15 8v7q-3 13 -44 44v8l18 3q15 -3 26 -3q0 3 33 18q0 -7 11 -7q69 14 92 22q0 8 33 14zM390 355v-3h8v3h-8z" />
    <glyph glyph-name="oslash" unicode="&#xf8;" horiz-adv-x="1010" 
 />
    <glyph glyph-name="ugrave" unicode="&#xf9;" horiz-adv-x="1059" 
 />
    <glyph glyph-name="uacute" unicode="&#xfa;" horiz-adv-x="1059" 
 />
    <glyph glyph-name="ucircumflex" unicode="&#xfb;" horiz-adv-x="1059" 
 />
    <glyph glyph-name="udieresis" unicode="&#xfc;" horiz-adv-x="1059" 
 />
    <glyph glyph-name="yacute" unicode="&#xfd;" horiz-adv-x="868" 
 />
    <glyph glyph-name="thorn" unicode="&#xfe;" horiz-adv-x="1010" 
 />
    <glyph glyph-name="ydieresis" unicode="&#xff;" horiz-adv-x="868" 
 />
    <glyph glyph-name="dotlessi" unicode="&#x131;" horiz-adv-x="514" 
 />
    <glyph glyph-name="circumflex" unicode="&#x2c6;" horiz-adv-x="1024" 
 />
    <glyph glyph-name="caron" unicode="&#x2c7;" horiz-adv-x="1024" 
 />
    <glyph glyph-name="uni02C9" unicode="&#x2c9;" horiz-adv-x="1024" 
 />
    <glyph glyph-name="breve" unicode="&#x2d8;" horiz-adv-x="1024" 
 />
    <glyph glyph-name="dotaccent" unicode="&#x2d9;" horiz-adv-x="1024" 
 />
    <glyph glyph-name="ring" unicode="&#x2da;" horiz-adv-x="1024" 
 />
    <glyph glyph-name="ogonek" unicode="&#x2db;" horiz-adv-x="1024" 
 />
    <glyph glyph-name="tilde" unicode="&#x2dc;" horiz-adv-x="1024" 
 />
    <glyph glyph-name="hungarumlaut" unicode="&#x2dd;" horiz-adv-x="1024" 
 />
    <glyph glyph-name="endash" unicode="&#x2013;" horiz-adv-x="1108" 
 />
    <glyph glyph-name="emdash" unicode="&#x2014;" horiz-adv-x="2048" 
 />
    <glyph glyph-name="quoteleft" unicode="&#x2018;" horiz-adv-x="557" 
 />
    <glyph glyph-name="quoteright" unicode="&#x2019;" horiz-adv-x="557" 
 />
    <glyph glyph-name="quotesinglbase" unicode="&#x201a;" horiz-adv-x="557" 
 />
    <glyph glyph-name="quotedblleft" unicode="&#x201c;" horiz-adv-x="910" 
 />
    <glyph glyph-name="quotedblright" unicode="&#x201d;" horiz-adv-x="910" 
 />
    <glyph glyph-name="quotedblbase" unicode="&#x201e;" horiz-adv-x="910" 
 />
    <glyph glyph-name="dagger" unicode="&#x2020;" 
 />
    <glyph glyph-name="daggerdbl" unicode="&#x2021;" 
 />
    <glyph glyph-name="bullet" unicode="&#x2022;" horiz-adv-x="1024" 
 />
    <glyph glyph-name="ellipsis" unicode="&#x2026;" horiz-adv-x="2048" 
 />
    <glyph glyph-name="guilsinglleft" unicode="&#x2039;" horiz-adv-x="631" 
 />
    <glyph glyph-name="guilsinglright" unicode="&#x203a;" horiz-adv-x="631" 
 />
    <glyph glyph-name="fraction" unicode="&#x2044;" horiz-adv-x="342" 
 />
    <glyph glyph-name="fraction" unicode="&#x2215;" horiz-adv-x="342" 
 />
    <glyph glyph-name="franc" unicode="&#x20a3;" 
 />
    <glyph glyph-name="lira" unicode="&#x20a4;" 
 />
    <glyph glyph-name="peseta" unicode="&#x20a7;" horiz-adv-x="2028" 
 />
    <glyph glyph-name="Euro" unicode="&#x20ac;" 
 />
    <glyph glyph-name="uni2116" unicode="&#x2116;" horiz-adv-x="2271" 
 />
    <glyph glyph-name="trademark" unicode="&#x2122;" horiz-adv-x="1497" 
 />
    <glyph glyph-name="partialdiff" unicode="&#x2202;" 
 />
    <glyph glyph-name="Delta" unicode="&#x2206;" horiz-adv-x="1081" 
 />
    <glyph glyph-name="product" unicode="&#x220f;" horiz-adv-x="1515" 
 />
    <glyph glyph-name="summation" unicode="&#x2211;" horiz-adv-x="1206" 
 />
    <glyph glyph-name="minus" unicode="&#x2212;" 
 />
    <glyph glyph-name="radical" unicode="&#x221a;" 
 />
    <glyph glyph-name="infinity" unicode="&#x221e;" 
 />
    <glyph glyph-name="integral" unicode="&#x222b;" horiz-adv-x="665" 
 />
    <glyph glyph-name="approxequal" unicode="&#x2248;" 
 />
    <glyph glyph-name="lessequal" unicode="&#x2264;" 
 />
    <glyph glyph-name="greaterequal" unicode="&#x2265;" 
 />
    <glyph glyph-name="uniF001" unicode="&#xf001;" horiz-adv-x="1073" 
 />
    <glyph glyph-name="uniF001" unicode="&#xfb01;" horiz-adv-x="1073" 
 />
    <glyph glyph-name="uniF002" unicode="&#xf002;" horiz-adv-x="1081" 
 />
    <glyph glyph-name="uniF002" unicode="&#xfb02;" horiz-adv-x="1081" 
 />
    </font>
</defs>
</svg>
